<?xml version="1.0" encoding="UTF-8"?>
<svg version="1.1" xmlns="http://www.w3.org/2000/svg" width="1198" height="407">
<path d="M0 0 C395.34 0 790.68 0 1198 0 C1198 134.31 1198 268.62 1198 407 C802.66 407 407.32 407 0 407 C0 272.69 0 138.38 0 0 Z " fill="#000000" transform="translate(0,0)"/>
<path d="M0 0 C2.51275911 1.26681212 4.81245949 2.57398876 7.1875 4.0625 C8.71258388 4.98855835 10.23869354 5.91292872 11.765625 6.8359375 C13.01762695 7.59729004 13.01762695 7.59729004 14.29492188 8.37402344 C19.30099304 11.38308788 24.37322288 14.27786458 29.4375 17.1875 C31.67456587 18.47641202 33.91154377 19.76547675 36.1484375 21.0546875 C38.43224017 22.36988109 40.7160946 23.68498481 43 25 C50.69570301 29.43099192 58.38849318 33.86688702 66.07519531 38.31347656 C68.81337322 39.89238583 71.55798719 41.45941682 74.3046875 43.0234375 C75.84911034 43.91119393 77.3933926 44.79919502 78.9375 45.6875 C79.62336182 46.07333252 80.30922363 46.45916504 81.01586914 46.85668945 C84.51275913 48.88187163 87.08710022 50.4203736 89 54 C89.45430336 57.30497556 89.41983619 60.58994369 89.40405273 63.92163086 C89.41091599 64.92855484 89.41777924 65.93547882 89.42485046 66.97291565 C89.4431621 70.30370151 89.43927461 73.63401831 89.43359375 76.96484375 C89.43815348 79.27885594 89.44345842 81.59286676 89.44947815 83.90687561 C89.45841787 88.75820413 89.45597627 93.60936811 89.44604492 98.46069336 C89.43455493 104.6796241 89.45476336 110.89798708 89.48396206 117.11684322 C89.5023026 121.89607861 89.50203583 126.67517742 89.49632454 131.45443916 C89.49617106 133.74737914 89.50223736 136.04032822 89.51461601 138.33323479 C89.52948298 141.53884434 89.51887969 144.74339823 89.50170898 147.94897461 C89.51621094 149.37129898 89.51621094 149.37129898 89.53100586 150.82235718 C89.48348733 155.05598348 89.39423546 157.36889817 87.1089325 161.02726746 C84.92892264 163.06648702 82.86845427 164.55056255 80.2734375 166.0234375 C78.86880249 166.83119629 78.86880249 166.83119629 77.43579102 167.65527344 C76.42572998 168.2227832 75.41566895 168.79029297 74.375 169.375 C72.79319946 170.28040527 72.79319946 170.28040527 71.17944336 171.20410156 C68.9378193 172.48672706 66.69385433 173.7652687 64.44775391 175.04003906 C58.80325118 178.24879617 53.18461178 181.50222908 47.5625 184.75 C46.46736084 185.38107666 45.37222168 186.01215332 44.24389648 186.66235352 C38.12697647 190.18760074 32.02145034 193.73066314 25.9375 197.3125 C25.2777417 197.69873535 24.6179834 198.0849707 23.93823242 198.48291016 C20.40787501 200.55525758 16.90979473 202.6699235 13.43359375 204.83203125 C12.2899939 205.53235474 12.2899939 205.53235474 11.12329102 206.24682617 C9.67184987 207.13654115 8.22766915 208.03826257 6.79272461 208.9543457 C2.38955275 211.6336674 -0.71547876 212.80429579 -6 212 C-8.62887066 210.74885775 -10.88468973 209.49825659 -13.3125 207.9375 C-14.81653289 207.01240912 -16.32182631 206.08936568 -17.828125 205.16796875 C-18.64990234 204.66056152 -19.47167969 204.1531543 -20.31835938 203.63037109 C-25.34403434 200.57488516 -30.46011099 197.67487146 -35.5625 194.75 C-45.19495829 189.20533637 -54.80867519 183.62964833 -64.40087891 178.015625 C-69.15032362 175.23748259 -73.90728628 172.47492072 -78.6875 169.75 C-79.5751001 169.24243164 -80.4627002 168.73486328 -81.37719727 168.21191406 C-83.04178774 167.26144512 -84.70882221 166.31523933 -86.37866211 165.37402344 C-87.47319702 164.74802246 -87.47319702 164.74802246 -88.58984375 164.109375 C-89.22784912 163.74811523 -89.86585449 163.38685547 -90.52319336 163.01464844 C-92 162 -92 162 -93 160 C-93.11063001 158.56959453 -93.16118435 157.13431099 -93.18081665 155.69976807 C-93.19519775 154.79696106 -93.20957886 153.89415405 -93.22439575 152.96398926 C-93.23493988 151.97072632 -93.24548401 150.97746338 -93.25634766 149.95410156 C-93.27095032 148.91006165 -93.28555298 147.86602173 -93.30059814 146.79034424 C-93.4265459 137.16147474 -93.49531868 127.53177683 -93.54844093 117.90225601 C-93.5842422 111.42934431 -93.63764405 104.95767128 -93.73388672 98.48535156 C-93.82659354 92.23243238 -93.87534366 85.98061064 -93.89283371 79.72704315 C-93.90694723 77.34268788 -93.93662979 74.95837225 -93.98213577 72.57440948 C-94.04275227 69.23612124 -94.04687491 65.90220117 -94.03759766 62.56347656 C-94.06838409 61.57831055 -94.09917053 60.59314453 -94.13088989 59.578125 C-94.03156066 53.00690248 -94.03156066 53.00690248 -91.03314686 50.08016205 C-88.74638727 48.5368729 -86.46272155 47.23849174 -84 46 C-83.000896 45.39414063 -82.00179199 44.78828125 -80.97241211 44.1640625 C-79.63835327 43.40222656 -79.63835327 43.40222656 -78.27734375 42.625 C-76.7469043 41.74714844 -76.7469043 41.74714844 -75.18554688 40.8515625 C-74.11369141 40.24054688 -73.04183594 39.62953125 -71.9375 39 C-69.6129802 37.66718751 -67.28876911 36.33384757 -64.96484375 35 C-64.37947845 34.66444092 -63.79411316 34.32888184 -63.19100952 33.9831543 C-57.44265562 30.68614759 -51.71977776 27.34625154 -46 24 C-39.61829493 20.26859714 -33.2297507 16.54970998 -26.82421875 12.859375 C-25.9276506 12.34280334 -25.9276506 12.34280334 -25.01296997 11.8157959 C-22.10534351 10.14108368 -19.19673518 8.46811326 -16.28710938 6.796875 C-15.24748047 6.19875 -14.20785156 5.600625 -13.13671875 4.984375 C-11.75552856 4.19111816 -11.75552856 4.19111816 -10.34643555 3.38183594 C-3.73397405 -0.51229913 -3.73397405 -0.51229913 0 0 Z " fill="#F5F5F5" transform="translate(601,75)"/>
<path d="M0 0 C4.15054114 0.83010823 6.0983092 1.40072445 9.5703125 3.4140625 C10.45396484 3.92074463 11.33761719 4.42742676 12.24804688 4.94946289 C13.19744141 5.50239014 14.14683594 6.05531738 15.125 6.625 C17.17905737 7.80448346 19.23377393 8.98281951 21.2890625 10.16015625 C22.91569824 11.09432373 22.91569824 11.09432373 24.57519531 12.04736328 C30.52130925 15.43751293 36.51146038 18.74805838 42.5 22.0625 C44.73978529 23.30302085 46.97937981 24.54388623 49.21875 25.78515625 C50.16685547 26.30988525 51.11496094 26.83461426 52.09179688 27.37524414 C55.40769689 29.22777223 58.7031493 31.11378309 62 33 C62.11581961 43.10073063 62.20467755 53.20130346 62.25906086 63.30256271 C62.28516155 67.99296258 62.32056787 72.68290837 62.37719727 77.37304688 C62.43150075 81.8988415 62.46141698 86.42419924 62.47438622 90.95029449 C62.48362915 92.67753224 62.50167872 94.40474591 62.52865028 96.13179779 C62.56492026 98.55030591 62.56994648 100.96700613 62.56762695 103.38574219 C62.58560333 104.10071869 62.60357971 104.81569519 62.62210083 105.55233765 C62.58376286 109.24373623 62.28311784 110.70845339 59.67155457 113.39776611 C56.84316253 115.09406146 54.17074178 116.11514183 51 117 C51 117.66 51 118.32 51 119 C52.051875 119.37125 52.051875 119.37125 53.125 119.75 C56.458734 121.19944956 59.17484619 122.7004562 62 125 C62.6875 127.5 62.6875 127.5 62 130 C58.78511675 132.8479653 55.39209961 135.05905223 51.66796875 137.1796875 C50.11565552 138.06865723 50.11565552 138.06865723 48.53198242 138.97558594 C47.42830322 139.60239258 46.32462402 140.22919922 45.1875 140.875 C43.44773381 141.87055678 41.70797423 142.86612545 39.96870422 143.86254883 C38.77585281 144.54580735 37.58272475 145.2285831 36.389328 145.91088867 C30.13462663 149.488421 23.90932447 153.11558803 17.6875 156.75 C16.68678467 157.33378418 15.68606934 157.91756836 14.6550293 158.51904297 C9.47225025 161.53685869 9.47225025 161.53685869 4.34619141 164.64916992 C1.48874241 166.29435882 0.25203927 166.54441546 -3 166 C-5.51264416 164.73324583 -7.81266477 163.42613857 -10.1875 161.9375 C-11.698194 161.0191455 -13.20998844 160.1025997 -14.72265625 159.1875 C-15.55555176 158.68089844 -16.38844727 158.17429688 -17.24658203 157.65234375 C-22.49421166 154.50320761 -27.81622894 151.48198387 -33.125 148.4375 C-40.4393853 144.22588338 -47.75141695 140.01167985 -55 135.6875 C-55.59828613 135.33292725 -56.19657227 134.97835449 -56.81298828 134.61303711 C-59.13724421 133.21617816 -61.07293826 131.92706174 -63 130 C-63.3984375 127.55883789 -63.3984375 127.55883789 -63 125 C-61.1640625 123.40795898 -61.1640625 123.40795898 -58.625 122.05859375 C-57.7071875 121.55312012 -56.789375 121.04764648 -55.84375 120.52685547 C-54.9053125 120.02299316 -53.966875 119.51913086 -53 119 C-51.37004732 118.04091985 -49.74490577 117.07361003 -48.125 116.09765625 C-38.33258697 110.29160273 -28.51698588 104.52522426 -18.66772461 98.81613159 C-16.96672723 97.82945351 -15.2675266 96.83967999 -13.56835938 95.84985352 C-12.52357422 95.24584717 -11.47878906 94.64184082 -10.40234375 94.01953125 C-9.47929443 93.48432861 -8.55624512 92.94912598 -7.60522461 92.39770508 C-5 91 -5 91 0 89 C0 59.63 0 30.26 0 0 Z " fill="#9E9E9E" transform="translate(599,95)"/>
<path d="M0 0 C0.52093921 11.32625395 0.88608659 22.64627941 1.05958939 33.98348236 C1.14495088 39.25088679 1.28117605 44.50608453 1.53955078 49.76806641 C3.20497539 84.79791036 3.20497539 84.79791036 -3.65667725 92.41433716 C-9.86826636 98.05304734 -17.56055913 100.9461503 -25.39035034 103.6318512 C-31.23915787 105.84869764 -36.33685648 109.11447644 -41.625 112.4375 C-43.40627628 113.50301937 -45.18967391 114.56501331 -46.9765625 115.62109375 C-47.70955566 116.0586499 -48.44254883 116.49620605 -49.19775391 116.94702148 C-50.44140726 117.67363716 -51.71170065 118.35585033 -53 119 C-53 118.34 -53 117.68 -53 117 C-54.3303125 116.62875 -54.3303125 116.62875 -55.6875 116.25 C-59.29563878 114.8884382 -61.31292044 113.76707721 -64 111 C-64.48000095 108.25206307 -64.63654806 106.12694899 -64.56762695 103.38574219 C-64.56872215 102.24369827 -64.56872215 102.24369827 -64.56983948 101.07858276 C-64.56636179 98.56728339 -64.52749542 96.05784942 -64.48828125 93.546875 C-64.47895369 91.80382297 -64.47183731 90.06075782 -64.46684265 88.31768799 C-64.4477682 83.7339243 -64.39866398 79.15095506 -64.34332275 74.56750488 C-64.29213965 69.88886258 -64.26933064 65.21009168 -64.24414062 60.53125 C-64.19054534 51.35381796 -64.10522741 42.17697509 -64 33 C-51.83438871 26.08694796 -39.672508 19.18599062 -27.3125 12.625 C-25.22411232 11.51517855 -23.13686603 10.40320659 -21.05078125 9.2890625 C-20.05900879 8.75958008 -19.06723633 8.23009766 -18.04541016 7.68457031 C-13.77734706 5.32368885 -9.62734574 2.77505729 -5.48510742 0.20068359 C-3 -1 -3 -1 0 0 Z " fill="#C5C5C5" transform="translate(600,95)"/>
<path d="M0 0 C2.76637308 1.14894957 5.2989803 2.60227839 7.875 4.125 C8.63586914 4.56150879 9.39673828 4.99801758 10.18066406 5.44775391 C12.79462725 6.95252642 15.3968107 8.47667251 18 10 C20.10103123 11.21446123 22.20261609 12.42796506 24.3046875 13.640625 C42.22423449 24.01197143 42.22423449 24.01197143 48 28 C44.59839578 30.74973625 40.89358789 32.75274296 37.03125 34.765625 C36.35509644 35.12211121 35.67894287 35.47859741 34.9822998 35.84588623 C32.82324769 36.98388584 30.66187865 38.11738038 28.5 39.25 C25.67539098 40.73118171 22.85274578 42.21602262 20.03125 43.703125 C19.00004028 44.24289978 19.00004028 44.24289978 17.94799805 44.7935791 C14.73781713 46.48755391 11.58434951 48.22138919 8.50390625 50.14257812 C7.46105469 50.79162109 6.41820312 51.44066406 5.34375 52.109375 C4.44849609 52.69170898 3.55324219 53.27404297 2.63085938 53.87402344 C-0.78966849 55.33796874 -2.44390473 55.0234423 -6 54 C-8.2345698 52.98887003 -10.4286544 51.88571857 -12.5859375 50.71875 C-13.20094116 50.38891113 -13.81594482 50.05907227 -14.44958496 49.71923828 C-16.42937655 48.65453095 -18.40221338 47.57762234 -20.375 46.5 C-21.72900215 45.76827428 -23.08333253 45.03715562 -24.43798828 44.30664062 C-33.6837149 39.30967398 -42.88918919 34.23944392 -52 29 C-52 28.34 -52 27.68 -52 27 C-51.31711914 26.60844727 -50.63423828 26.21689453 -49.93066406 25.81347656 C-47.2957996 24.30140861 -44.66192312 22.78763644 -42.02868652 21.2727356 C-40.84485705 20.59203974 -39.66069446 19.91192291 -38.47619629 19.23239136 C-32.27863644 15.67588773 -26.10527478 12.09730681 -20.03125 8.33203125 C-19.13374023 7.77805664 -18.23623047 7.22408203 -17.31152344 6.65332031 C-15.64100293 5.61585256 -13.97718575 4.5674887 -12.32128906 3.50683594 C-5.06688634 -0.98784124 -5.06688634 -0.98784124 0 0 Z " fill="#636363" transform="translate(601,185)"/>
<path d="M0 0 C2.32746585 0.98014939 4.51361078 2.02554817 6.75 3.1875 C7.44375732 3.54118652 8.13751465 3.89487305 8.85229492 4.25927734 C16.87089362 8.38362806 24.77514161 12.72554184 32.67578125 17.0703125 C33.54412598 17.5437207 34.4124707 18.01712891 35.30712891 18.50488281 C37.19953055 19.55556891 39.0756552 20.63585001 40.93896484 21.73730469 C42.38263428 22.57503418 42.38263428 22.57503418 43.85546875 23.4296875 C45.1552063 24.2028833 45.1552063 24.2028833 46.48120117 24.99169922 C49.5523927 26.22112842 50.88297183 26.01308027 54 25 C56.3716213 23.99010052 56.3716213 23.99010052 58.74609375 22.69921875 C60.11048584 21.98330566 60.11048584 21.98330566 61.50244141 21.25292969 C62.47101074 20.73633789 63.43958008 20.21974609 64.4375 19.6875 C65.44216309 19.15930664 66.44682617 18.63111328 67.48193359 18.08691406 C72.7661179 15.29691748 78.01381555 12.44944613 83.23046875 9.53515625 C84.22054932 8.98448486 85.21062988 8.43381348 86.23071289 7.86645508 C88.12738165 6.80716837 90.01874493 5.73831277 91.90405273 4.65893555 C93.19291382 3.93830933 93.19291382 3.93830933 94.5078125 3.203125 C95.25691895 2.77676758 96.00602539 2.35041016 96.77783203 1.91113281 C99.37352284 0.84684825 101.21784923 0.75524859 104 1 C106.45703125 2.13671875 106.45703125 2.13671875 108.8125 3.6875 C109.60269531 4.18636719 110.39289063 4.68523437 111.20703125 5.19921875 C113 7 113 7 113.57421875 9.45703125 C112.76545705 13.0386902 110.92955648 13.8638118 108 16 C106.2453103 17.09699318 104.4662384 18.15569715 102.66796875 19.1796875 C101.63309326 19.77233398 100.59821777 20.36498047 99.53198242 20.97558594 C98.42830322 21.60239258 97.32462402 22.22919922 96.1875 22.875 C94.44773381 23.87055678 92.70797423 24.86612545 90.96870422 25.86254883 C89.77585281 26.54580735 88.58272475 27.2285831 87.389328 27.91088867 C81.13462663 31.488421 74.90932447 35.11558803 68.6875 38.75 C67.186427 39.62567627 67.186427 39.62567627 65.6550293 40.51904297 C60.47225025 43.53685869 60.47225025 43.53685869 55.34619141 46.64916992 C52.48874241 48.29435882 51.25203927 48.54441546 48 48 C45.48735584 46.73324583 43.18733523 45.42613857 40.8125 43.9375 C39.301806 43.0191455 37.79001156 42.1025997 36.27734375 41.1875 C35.44444824 40.68089844 34.61155273 40.17429688 33.75341797 39.65234375 C28.50578834 36.50320761 23.18377106 33.48198387 17.875 30.4375 C10.5606147 26.22588338 3.24858305 22.01167985 -4 17.6875 C-4.59828613 17.33292725 -5.19657227 16.97835449 -5.81298828 16.61303711 C-8.13724421 15.21617816 -10.07293826 13.92706174 -12 12 C-12.4296875 9.578125 -12.4296875 9.578125 -12 7 C-9.8828125 5.234375 -9.8828125 5.234375 -7.125 3.75 C-6.22007812 3.24984375 -5.31515625 2.7496875 -4.3828125 2.234375 C-2.92675421 1.48008907 -1.46671143 0.73335571 0 0 Z " fill="#7C7C7C" transform="translate(548,213)"/>
<path d="M0 0 C4.50224449 1.50074816 7.68775561 2.79721376 11.67578125 5.125 C13.27788452 6.05469604 13.27788452 6.05469604 14.91235352 7.00317383 C16.03440186 7.66212646 17.1564502 8.3210791 18.3125 9 C19.47494915 9.67837259 20.63762981 10.35634863 21.80053711 11.03393555 C24.11684752 12.3847179 26.43094638 13.73908015 28.74414062 15.09521484 C31.6407132 16.78980537 34.54447087 18.47079668 37.453125 20.14453125 C38.98972666 21.0336065 40.52619647 21.92290968 42.0625 22.8125 C42.7635083 23.21404297 43.4645166 23.61558594 44.18676758 24.02929688 C48.88590586 26.77181172 48.88590586 26.77181172 50 29 C49.12770752 29.45101074 49.12770752 29.45101074 48.23779297 29.91113281 C45.44890992 31.35495683 42.66171005 32.80198617 39.875 34.25 C38.33416748 35.05014526 38.33416748 35.05014526 36.76220703 35.86645508 C31.39294501 38.66661576 26.04990779 41.50403445 20.75 44.43359375 C19.76273926 44.97918945 18.77547852 45.52478516 17.75830078 46.08691406 C15.86793831 47.13629733 13.98076065 48.19144293 12.09716797 49.25292969 C11.23752441 49.73020508 10.37788086 50.20748047 9.4921875 50.69921875 C8.74308105 51.12033936 7.99397461 51.54145996 7.22216797 51.9753418 C5 53 5 53 0 54 C0 36.18 0 18.36 0 0 Z " fill="#4F4F4F" transform="translate(599,185)"/>
<path d="M0 0 C1.67542976 0.28604898 3.34385343 0.61781233 5 1 C5.45296063 7.34144881 4.61124356 11.69459279 1 17 C0.3090625 17.5671875 -0.381875 18.134375 -1.09375 18.71875 C-3.81073774 21.97022713 -3.67110026 25.19024985 -3.75 29.25 C-3.77964844 29.99507813 -3.80929687 30.74015625 -3.83984375 31.5078125 C-3.9102343 33.33796672 -3.95741832 35.16898769 -4 37 C-3.34 37 -2.68 37 -2 37 C-2.08378906 35.92878906 -2.16757812 34.85757813 -2.25390625 33.75390625 C-2.35704896 32.35679134 -2.45989843 30.95965476 -2.5625 29.5625 C-2.61857422 28.85544922 -2.67464844 28.14839844 -2.73242188 27.41992188 C-2.86190993 25.61572163 -2.93521608 23.80768048 -3 22 C-2 21 -2 21 1.5625 20.9375 C2.696875 20.958125 3.83125 20.97875 5 21 C4.67 22.32 4.34 23.64 4 25 C2.68 25 1.36 25 0 25 C0.02320313 25.91523438 0.04640625 26.83046875 0.0703125 27.7734375 C0.09738281 29.55621094 0.09738281 29.55621094 0.125 31.375 C0.14820313 32.55835938 0.17140625 33.74171875 0.1953125 34.9609375 C0 38 0 38 -2 40 C-4 39.8125 -4 39.8125 -6 39 C-8.47717914 35.2842313 -8.34443879 32.36719104 -8.3125 28.0625 C-8.30831055 27.30412842 -8.30412109 26.54575684 -8.29980469 25.7644043 C-8.11529053 16.47293849 -6.85378501 6.85378501 0 0 Z " fill="#E9E9E9" transform="translate(621,294)"/>
<path d="M0 0 C0.99 0 1.98 0 3 0 C3 2.97 3 5.94 3 9 C4.32 6.03 5.64 3.06 7 0 C7.99 0 8.98 0 10 0 C10 3.3 10 6.6 10 10 C11.65 9.34 13.3 8.68 15 8 C14.8125 9.8125 14.8125 9.8125 14 12 C13.21496094 12.40347656 12.42992187 12.80695313 11.62109375 13.22265625 C8.15893405 15.57032043 7.58746892 17.70812674 6.25 21.625 C4.04067797 27.95932203 4.04067797 27.95932203 3 29 C0 29.125 0 29.125 -3 29 C-3.33 28.67 -3.66 28.34 -4 28 C-4 24.42068137 -3.83700292 21.92331257 -1.37109375 19.203125 C0.37339372 17.72295381 2.13737638 16.32766644 4 15 C3.67 15 3.34 15 3 15 C1.33178677 14.67449498 -0.33499557 14.34153937 -2 14 C-2.05410687 12.22950311 -2.09284119 10.45853151 -2.125 8.6875 C-2.14820313 7.70136719 -2.17140625 6.71523438 -2.1953125 5.69921875 C-2 3 -2 3 0 0 Z " fill="#D5D5D5" transform="translate(596,309)"/>
<path d="M0 0 C1.8125 0.8125 1.8125 0.8125 2.8125 1.8125 C3.31345842 8.15797328 2.19728707 12.20999847 -0.6875 17.8125 C-1.02136719 18.49183594 -1.35523438 19.17117188 -1.69921875 19.87109375 C-2.51462952 21.52521274 -3.34909728 23.16991507 -4.1875 24.8125 C-1.42473823 24.28981534 1.1385876 23.70380413 3.8125 22.8125 C3.44456382 25.48003731 2.99251672 26.63248328 1.0625 28.5625 C-1.66580675 30.07822597 -3.11492508 30.36398781 -6.1875 29.8125 C-8.46547497 27.51813672 -9.14532824 26.12134611 -9.5859375 22.89453125 C-9.5280879 14.82451137 -9.15649156 7.83500469 -4.25 1.1875 C-2.1875 -0.1875 -2.1875 -0.1875 0 0 Z " fill="#E1E1E1" transform="translate(588.1875,294.1875)"/>
<path d="M0 0 C0.99 0 1.98 0 3 0 C3 2.97 3 5.94 3 9 C4.32 6.03 5.64 3.06 7 0 C7.99 0 8.98 0 10 0 C8.20356662 21.36810229 8.20356662 21.36810229 3 29 C1.00045254 29.04254356 -1.00041636 29.04080783 -3 29 C-3.33 28.67 -3.66 28.34 -4 28 C-4 24.42068137 -3.83700292 21.92331257 -1.37109375 19.203125 C0.37339372 17.72295381 2.13737638 16.32766644 4 15 C3.67 15 3.34 15 3 15 C1.33178677 14.67449498 -0.33499557 14.34153937 -2 14 C-2.05410687 12.22950311 -2.09284119 10.45853151 -2.125 8.6875 C-2.14820313 7.70136719 -2.17140625 6.71523438 -2.1953125 5.69921875 C-2 3 -2 3 0 0 Z " fill="#E2E2E2" transform="translate(631,309)"/>
<path d="M0 0 C0.99 0.33 1.98 0.66 3 1 C3.33 3.31 3.66 5.62 4 8 C5.32 5.36 6.64 2.72 8 0 C8.99 0.33 9.98 0.66 11 1 C11.33 3.64 11.66 6.28 12 9 C12.17015625 8.43410156 12.3403125 7.86820312 12.515625 7.28515625 C12.75796875 6.55167969 13.0003125 5.81820313 13.25 5.0625 C13.48203125 4.33160156 13.7140625 3.60070312 13.953125 2.84765625 C15 1 15 1 17.109375 0.24609375 C17.73328125 0.16488281 18.3571875 0.08367187 19 0 C19 1.98 19 3.96 19 6 C20.65 5.67 22.3 5.34 24 5 C23.67 6.32 23.34 7.64 23 9 C20.69 9 18.38 9 16 9 C15.566875 9.928125 15.566875 9.928125 15.125 10.875 C14 13 14 13 12 15 C9.875 14.625 9.875 14.625 8 14 C7.67 12.68 7.34 11.36 7 10 C5.515 12.475 5.515 12.475 4 15 C0.125 14.125 0.125 14.125 -1 13 C-1.09873816 11.00200428 -1.12971799 9.00042842 -1.125 7 C-1.12757813 5.906875 -1.13015625 4.81375 -1.1328125 3.6875 C-1 1 -1 1 0 0 Z " fill="#EAEAEA" transform="translate(553,309)"/>
<path d="M0 0 C0.99 0 1.98 0 3 0 C3 3.3 3 6.6 3 10 C4.65 9.34 6.3 8.68 8 8 C7.8125 9.8125 7.8125 9.8125 7 12 C6.21496094 12.40347656 5.42992187 12.80695313 4.62109375 13.22265625 C1.15893405 15.57032043 0.58746892 17.70812674 -0.75 21.625 C-2.95932203 27.95932203 -2.95932203 27.95932203 -4 29 C-7 29.125 -7 29.125 -10 29 C-11 28 -11 28 -11.4375 25.875 C-10.77899343 21.5476711 -8.09239793 18.98023842 -5 16 C-4.34 15.67 -3.68 15.34 -3 15 C-2.55667358 12.68195337 -2.2185966 10.34325909 -1.9375 8 C-1.09529277 1.09529277 -1.09529277 1.09529277 0 0 Z " fill="#D4D4D4" transform="translate(524,309)"/>
<path d="M0 0 C2.25 0.875 2.25 0.875 3.25 1.875 C3.5625 4.25 3.5625 4.25 3.25 6.875 C1.20575462 8.85110386 0.1323175 9.875 -2.75 9.875 C-2.75 10.535 -2.75 11.195 -2.75 11.875 C-2.20730469 11.67003906 -1.66460938 11.46507812 -1.10546875 11.25390625 C-0.39003906 10.98449219 0.32539062 10.71507812 1.0625 10.4375 C1.77019531 10.17066406 2.47789062 9.90382813 3.20703125 9.62890625 C4.87672396 9.01274814 6.56157704 8.43780765 8.25 7.875 C8.0625 9.6875 8.0625 9.6875 7.25 11.875 C4.53262205 14.04890236 2.63766844 14.81961879 -0.8125 15.3125 C-3.75 14.875 -3.75 14.875 -6.125 13.25 C-8.26323431 10.12488831 -8.4329669 8.59337535 -7.75 4.875 C-3.98479888 -0.18112722 -3.98479888 -0.18112722 0 0 Z " fill="#D4D4D4" transform="translate(541.75,309.125)"/>
<path d="M0 0 C2.625 0.375 2.625 0.375 5 1 C5.29341888 6.67276511 5.00559652 9.99067246 2 15 C0.68 15 -0.64 15 -2 15 C-2.33 15.66 -2.66 16.32 -3 17 C-2.73958333 15.046875 -2.47916667 13.09375 -2.21875 11.140625 C-1.93222643 8.69541605 -1.93222643 8.69541605 -2 5 C-2 2 -2 2 0 0 Z " fill="#E2E2E2" transform="translate(621,294)"/>
<path d="M0 0 C1 1 1 1 1.3125 4.5 C1.28492284 9.57419703 -0.70027355 13.56481327 -3 18 C-3.99 18 -4.98 18 -6 18 C-4.68 12.72 -3.36 7.44 -2 2 C-2.66 2 -3.32 2 -4 2 C-4.33 2.66 -4.66 3.32 -5 4 C-5.66 4 -6.32 4 -7 4 C-6.625 2.0625 -6.625 2.0625 -6 0 C-3.49749232 -1.25125384 -2.59701335 -0.83774624 0 0 Z " fill="#E2E2E2" transform="translate(590,295)"/>
<path d="M0 0 C1.32 0.66 2.64 1.32 4 2 C2.125 7.875 2.125 7.875 1 9 C-2 9.125 -2 9.125 -5 9 C-6 8 -6 8 -6.0625 5.4375 C-6.041875 4.633125 -6.02125 3.82875 -6 3 C-5.195625 2.690625 -4.39125 2.38125 -3.5625 2.0625 C-1.10919595 1.23664655 -1.10919595 1.23664655 0 0 Z " fill="#B2B2B2" transform="translate(633,329)"/>
<path d="M0 0 C0.33 0.66 0.66 1.32 1 2 C0.67 2.99 0.34 3.98 0 5 C0.78375 4.34 1.5675 3.68 2.375 3 C5 1 5 1 7 1 C5.125 6.875 5.125 6.875 4 8 C1 8.125 1 8.125 -2 8 C-3 7 -3 7 -3.25 4.5625 C-3.1675 3.716875 -3.085 2.87125 -3 2 C-2.01 1.34 -1.02 0.68 0 0 Z " fill="#E2E2E2" transform="translate(595,330)"/>
<path d="M0 0 C0.66 0 1.32 0 2 0 C1.6083965 5.95507399 0.62875405 10.62819824 -2 16 C-2.33 16 -2.66 16 -3 16 C-3.37851209 10.06997733 -2.10575375 5.52760359 0 0 Z " fill="#292929" transform="translate(586,297)"/>
<path d="M0 0 C1.134375 0.020625 2.26875 0.04125 3.4375 0.0625 C3.1075 1.3825 2.7775 2.7025 2.4375 4.0625 C1.1175 4.0625 -0.2025 4.0625 -1.5625 4.0625 C-1.5625 4.7225 -1.5625 5.3825 -1.5625 6.0625 C-2.5525 6.0625 -3.5425 6.0625 -4.5625 6.0625 C-4.605221 4.39638095 -4.60313832 2.72867115 -4.5625 1.0625 C-3.5625 0.0625 -3.5625 0.0625 0 0 Z " fill="#DCDCDC" transform="translate(622.5625,314.9375)"/>
<path d="M0 0 C0.33 0 0.66 0 1 0 C0.7444669 5.86448454 0.34242429 9.65757571 -4 14 C-3.53328373 8.58609132 -2.75702189 4.79482068 0 0 Z " fill="#2B2B2B" transform="translate(622,297)"/>
<path d="M0 0 C1.98 0.495 1.98 0.495 4 1 C3.67 2.32 3.34 3.64 3 5 C1.68 5 0.36 5 -1 5 C-0.67 3.35 -0.34 1.7 0 0 Z " fill="#E6E6E6" transform="translate(524,302)"/>
</svg>
