<?xml version="1.0" encoding="UTF-8"?>
<svg version="1.1" xmlns="http://www.w3.org/2000/svg" width="1200" height="1200">
<path d="M0 0 C396 0 792 0 1200 0 C1200 396 1200 792 1200 1200 C804 1200 408 1200 0 1200 C0 804 0 408 0 0 Z " fill="#000000" transform="translate(0,0)"/>
<path d="M0 0 C5.65594705 2.09573038 10.7826025 4.99420995 16 8 C16.87172852 8.49870605 17.74345703 8.99741211 18.64160156 9.51123047 C24.71905377 13.00084383 30.75883065 16.55256997 36.79394531 20.11474609 C42.09505635 23.2319544 47.42177242 26.30444119 52.75 29.375 C53.82282227 29.99375 54.89564453 30.6125 56.00097656 31.25 C64.62076411 36.21655416 73.26063985 41.147502 81.90216064 46.07608032 C90.98795878 51.25985125 100.03821041 56.50194021 109.06738281 61.78369141 C119.59111319 67.93792989 130.1539592 74.02379087 140.71777344 80.10888672 C146.14659942 83.23680148 151.57319281 86.36858448 157 89.5 C159.16665583 90.75001879 161.3333225 92.00001878 163.5 93.25 C176.5 100.75 189.5 108.25 202.5 115.75 C203.57354736 116.36931396 204.64709473 116.98862793 205.75317383 117.62670898 C207.90940213 118.87076792 210.06549049 120.11506942 212.22143555 121.35961914 C217.79665498 124.57756782 223.37455293 127.79075494 228.95703125 130.99609375 C234.40463961 134.1252763 239.84499149 137.26663399 245.27783203 140.42138672 C246.94854621 141.3902511 248.62100503 142.35612387 250.29638672 143.31689453 C258.20447056 147.85910139 265.39694065 152.19437204 269 161 C269.25415033 163.48584044 269.25415033 163.48584044 269.26006222 166.33687782 C269.26712781 167.42549445 269.2741934 168.51411107 269.2814731 169.63571608 C269.27905802 170.83121939 269.27664293 172.02672269 269.27415466 173.25845337 C269.27939134 174.52888375 269.28462802 175.79931412 269.29002339 177.10824239 C269.30421642 180.63721105 269.30586643 184.16609169 269.30542648 187.69508481 C269.30707359 191.50030419 269.32013827 195.3054872 269.33161926 199.11068726 C269.35447855 207.43316993 269.36239115 215.75562711 269.36744571 224.07813692 C269.37070223 229.27573177 269.37722452 234.47331922 269.3844471 239.67090988 C269.40401574 254.06382064 269.4204179 268.45672451 269.42332363 282.84964943 C269.4235112 283.77088803 269.42369877 284.69212664 269.42389202 285.64128157 C269.42425827 287.50884398 269.42462197 289.37640639 269.42498314 291.2439688 C269.42516595 292.17102257 269.42534876 293.09807635 269.42553711 294.05322266 C269.42580793 295.4455027 269.42580793 295.4455027 269.42608423 296.86590962 C269.42962456 311.90010456 269.45663691 326.93415614 269.494035 341.96830137 C269.53213101 357.40671339 269.55148121 372.84505432 269.55178314 388.28351438 C269.55236749 396.95035875 269.56084458 405.61703221 269.58978081 414.28383255 C269.61431224 421.66529415 269.62156589 429.04652252 269.60653328 436.42801388 C269.59937099 440.19239655 269.60019162 443.95631886 269.62294388 447.72064972 C269.647407 451.80731859 269.63287894 455.89294314 269.61473083 459.97964478 C269.6279308 461.16176375 269.64113077 462.34388273 269.65473074 463.56182349 C269.57159059 471.76734254 267.98357209 478.65625329 262.30187029 484.85166609 C258.25507037 488.60728281 253.47737352 491.18494597 248.625 493.75 C247.01204623 494.6245069 245.40008807 495.50085228 243.7890625 496.37890625 C242.98243164 496.81734863 242.17580078 497.25579102 241.34472656 497.70751953 C237.85469723 499.63132371 234.42549566 501.65160409 231 503.6875 C223.84369071 507.92978666 216.64735129 512.09938674 209.4375 516.25 C196.93093556 523.4533891 184.46036411 530.71706111 172 538 C158.59382119 545.83575666 145.17079317 553.64037711 131.71582031 561.39208984 C120.4520275 567.88499878 109.22447236 574.43942556 98 581 C85.53963319 588.28294047 73.06885234 595.54623946 60.5625 602.75 C53.48408733 606.82748867 46.41137151 610.91282282 39.375 615.0625 C38.41134521 615.62964722 38.41134521 615.62964722 37.42822266 616.20825195 C34.30976555 618.04459187 31.19377357 619.88487093 28.08251953 621.73339844 C24.87087873 623.64051098 21.6544112 625.5392939 18.4375 627.4375 C17.4254248 628.04150635 16.41334961 628.6455127 15.37060547 629.26782227 C-0.68036283 638.71294318 -0.68036283 638.71294318 -10 637 C-13.71141532 635.55167816 -17.07000658 633.64083597 -20.5 631.625 C-21.46776367 631.07626221 -22.43552734 630.52752441 -23.43261719 629.9621582 C-26.30079565 628.32850852 -29.15230192 626.66903893 -32 625 C-32.74314453 624.5683252 -33.48628906 624.13665039 -34.25195312 623.69189453 C-37.63365112 621.7273121 -41.00239776 619.74214573 -44.36328125 617.7421875 C-50.02478771 614.38062887 -55.7321213 611.09885534 -61.4375 607.8125 C-62.54448242 607.17465576 -63.65146484 606.53681152 -64.79199219 605.87963867 C-67.06287274 604.571414 -69.33386985 603.26339163 -71.60498047 601.95556641 C-77.0716998 598.80667946 -82.53574887 595.65316736 -88 592.5 C-90.16665311 591.2499765 -92.33331979 589.99997653 -94.5 588.75 C-116.16666667 576.25 -137.83333333 563.75 -159.5 551.25 C-160.57266113 550.63116943 -161.64532227 550.01233887 -162.75048828 549.37475586 C-164.91557071 548.12564482 -167.08060982 546.87645871 -169.24560547 545.62719727 C-174.68615706 542.48797691 -180.12747216 539.35009437 -185.5703125 536.21484375 C-197.00211011 529.62782121 -208.41687382 523.01368425 -219.80322266 516.34838867 C-225.84697011 512.81781879 -231.91388936 509.33124665 -238.0004425 505.8752594 C-244.34626196 502.27199736 -250.67584196 498.64115169 -257 495 C-258.34167236 494.23333008 -258.34167236 494.23333008 -259.71044922 493.45117188 C-261.96552877 492.15430949 -264.20395533 490.83350731 -266.4375 489.5 C-267.05109375 489.15163086 -267.6646875 488.80326172 -268.296875 488.44433594 C-273.67350238 485.15964921 -276.26027809 480.47944382 -279 475 C-279.09667469 473.30861023 -279.12918038 471.61339743 -279.13142776 469.91924858 C-279.13526891 468.83686405 -279.13911005 467.75447952 -279.1430676 466.63929546 C-279.14220112 465.44049318 -279.14133463 464.2416909 -279.14044189 463.00656128 C-279.14341302 461.74051217 -279.14638414 460.47446306 -279.1494453 459.17004883 C-279.15753374 455.64411895 -279.15930589 452.11820939 -279.16004276 448.59227133 C-279.16189018 444.79388473 -279.16943606 440.99550877 -279.17617798 437.1971283 C-279.18977611 428.88499266 -279.19578865 420.57286183 -279.20018864 412.26071692 C-279.20294923 407.07152676 -279.20718631 401.88233846 -279.21169281 396.69314957 C-279.22388867 382.32948104 -279.23418654 367.96581402 -279.2375679 353.60214043 C-279.23778747 352.68229607 -279.23800703 351.76245171 -279.23823325 350.81473327 C-279.23845153 349.89266432 -279.23866981 348.97059537 -279.2388947 348.02058494 C-279.23933817 346.15206965 -279.23978473 344.28355435 -279.24023438 342.41503906 C-279.2404558 341.48818735 -279.24067723 340.56133565 -279.24090537 339.60639752 C-279.24485202 324.59339906 -279.26230054 309.58044917 -279.2855939 294.56746946 C-279.3093088 279.15851648 -279.32176986 263.74958787 -279.32293582 248.34061635 C-279.32385264 239.68726465 -279.32960642 231.03397621 -279.34775543 222.38064194 C-279.36315847 215.01046456 -279.36827579 207.64036997 -279.36001733 200.27017955 C-279.35611119 196.51021744 -279.35703846 192.75042201 -279.37107468 188.99048042 C-279.38616064 184.91198014 -279.3779458 180.83385527 -279.36749268 176.75534058 C-279.37554908 175.56992263 -279.38360548 174.38450468 -279.39190602 173.16316497 C-279.34293394 165.00320487 -278.47401918 157.81877337 -272.72802734 151.48388672 C-268.70161652 148.02633869 -263.93640863 145.62032747 -259.3125 143.0625 C-258.14893299 142.40680285 -256.98610424 141.74979408 -255.82397461 141.09155273 C-253.41352649 139.72771158 -251.00003264 138.36951951 -248.58398438 137.015625 C-243.05067562 133.9101738 -237.55715855 130.73567897 -232.0625 127.5625 C-230.99281982 126.94632812 -229.92313965 126.33015625 -228.82104492 125.6953125 C-221.05237252 121.211888 -213.3321524 116.65070257 -205.625 112.0625 C-195.23955354 105.88100888 -184.78239198 99.84146915 -174.27880859 93.86401367 C-163.78334836 87.88975209 -153.34852473 81.81507116 -142.92675781 75.71337891 C-128.55043686 67.29721103 -114.15029945 58.9239385 -99.71582031 50.60791016 C-88.4520275 44.11500122 -77.22447236 37.56057444 -66 31 C-53.8444375 23.89521413 -41.68289708 16.80103939 -29.49212646 9.75680542 C-27.78619161 8.77091577 -26.08083359 7.78402821 -24.37548828 6.79711914 C-22.82063721 5.89981079 -22.82063721 5.89981079 -21.234375 4.984375 C-20.31881836 4.45553711 -19.40326172 3.92669922 -18.45996094 3.38183594 C-12.06434549 -0.21077854 -7.39953525 -1.15617738 0 0 Z " fill="#F6F6F6" transform="translate(605,215)"/>
<path d="M0 0 C18.23943015 9.11971507 18.23943015 9.11971507 26.8125 14.0625 C28.79244381 15.19232667 30.77293599 16.32119277 32.75390625 17.44921875 C34.28168701 18.32006104 34.28168701 18.32006104 35.84033203 19.20849609 C41.29082292 22.29887642 46.77036226 25.33669101 52.25 28.375 C53.37688232 29.00019531 54.50376465 29.62539063 55.66479492 30.26953125 C57.96029368 31.54276094 60.25594859 32.81570912 62.55175781 34.08837891 C77.91405474 42.60486043 93.26571469 51.13962596 108.58642578 59.73071289 C116.21402944 64.0057019 123.85452245 68.25707182 131.5 72.5 C140.37901502 77.43030091 149.25710704 82.36221595 158.125 87.3125 C159.07052734 87.8384375 160.01605469 88.364375 160.99023438 88.90625 C162.85365453 89.94791344 164.70403647 91.01330839 166.53937149 92.10369492 C169.13102132 93.52382965 171.53461185 94.65005049 174.25271225 95.74838638 C185.51140569 100.68362048 185.51140569 100.68362048 187.97551823 106.17331791 C189.55383016 112.76187592 189.16174747 119.52235191 188.97753906 126.24511719 C188.97765509 128.51270222 188.98522588 130.78029724 188.99966431 133.0478363 C189.01732058 139.18808573 188.9298925 145.32280248 188.82249165 151.46197033 C188.72716531 157.89047324 188.72618401 164.31900775 188.71429443 170.74810791 C188.68120256 181.5393674 188.5867141 192.32830326 188.44726562 203.11865234 C188.30401169 214.21339971 188.20491953 225.30723677 188.16015625 236.40283203 C188.15738616 237.08680836 188.15461607 237.77078468 188.15176204 238.47548756 C188.14074696 241.22507248 188.12988476 243.97465794 188.11926283 246.7242444 C188.0699297 259.22777988 187.98213887 271.73108618 187.890625 284.234375 C187.88184484 285.50189071 187.87306467 286.76940641 187.86401844 288.07533169 C187.81206076 295.35904279 187.74386428 302.64225416 187.65031052 309.92555428 C187.62396532 312.13219156 187.60255007 314.338894 187.58640671 316.5456295 C187.56324828 319.55615429 187.52171074 322.56586967 187.47515869 325.57611084 C187.47230118 326.45062165 187.46944367 327.32513246 187.46649957 328.2261436 C187.3652078 333.21436387 186.74628772 336.67221087 184 341 C180.75305514 344.02373227 177.22151061 346.12704685 173.33203125 348.234375 C172.27435547 348.80800781 171.21667969 349.38164063 170.12695312 349.97265625 C169.03318359 350.55917969 167.93941406 351.14570312 166.8125 351.75 C165.70712891 352.35199219 164.60175781 352.95398438 163.46289062 353.57421875 C155.25863627 358 155.25863627 358 153 358 C153 358.66 153 359.32 153 360 C154.07217773 360.40641724 154.07217773 360.40641724 155.16601562 360.82104492 C160.1612492 362.89909307 164.78978834 365.66337347 169.5 368.3125 C170.53253906 368.88162109 171.56507813 369.45074219 172.62890625 370.03710938 C184.2968785 376.59375701 184.2968785 376.59375701 187 382 C187.14832685 383.74569287 187.22128283 385.49825237 187.25 387.25 C187.27578125 388.18328125 187.3015625 389.1165625 187.328125 390.078125 C186.91935045 393.71816506 185.98863996 395.91906723 184 399 C181.33984375 401.02734375 181.33984375 401.02734375 177.9375 402.9375 C176.97215332 403.49038696 176.97215332 403.49038696 175.98730469 404.05444336 C174.50748128 404.90061357 173.02360935 405.73972719 171.53662109 406.57324219 C167.68122487 408.74176341 163.8545357 410.95952647 160.02416992 413.171875 C157.81069866 414.45001395 155.59598267 415.72599935 153.38012695 417 C145.42169464 421.57967645 137.5136837 426.23838557 129.625 430.9375 C119.23973809 437.1192931 108.78238531 443.15853464 98.27880859 449.13598633 C87.78334836 455.11024791 77.34852473 461.18492884 66.92675781 467.28662109 C53.32650776 475.24846251 39.71001099 483.18193823 26.0625 491.0625 C24.99080566 491.68181396 23.91911133 492.30112793 22.81494141 492.93920898 C20.79974167 494.10145706 18.78101279 495.25761397 16.75830078 496.40673828 C15.00746801 497.41806194 13.27379694 498.46019568 11.56591797 499.54248047 C6.34704301 502.75869824 2.13576238 504.19889477 -4 503 C-6.90333598 501.94257299 -9.43265022 500.48584432 -12.0625 498.875 C-12.82433594 498.43051514 -13.58617187 497.98603027 -14.37109375 497.52807617 C-16.03760195 496.55322877 -17.69905337 495.56969717 -19.35595703 494.57861328 C-22.08887866 492.94693542 -24.83672762 491.34344065 -27.58984375 489.74609375 C-31.61956671 487.40685255 -35.64390498 485.05876744 -39.6640625 482.703125 C-46.05281992 478.96365411 -52.46116076 475.25874966 -58.875 471.5625 C-59.95458984 470.94028564 -61.03417969 470.31807129 -62.14648438 469.67700195 C-64.3368252 468.41488483 -66.52725502 467.15292215 -68.71777344 465.89111328 C-74.14659942 462.76319852 -79.57319281 459.63141552 -85 456.5 C-87.16665583 455.24998121 -89.3333225 453.99998122 -91.5 452.75 C-104.5 445.25 -117.5 437.75 -130.5 430.25 C-131.57386963 429.6305249 -132.64773926 429.0110498 -133.75415039 428.37280273 C-135.90721037 427.13052194 -138.06004478 425.88785012 -140.21264648 424.64477539 C-145.24101461 421.74163888 -150.27139814 418.84221133 -155.31021118 415.95724487 C-157.08432545 414.94122816 -158.85769919 413.92393072 -160.63085938 412.90625 C-162.84815314 411.63417708 -165.06681075 410.36447715 -167.28710938 409.09765625 C-186.21902708 398.22418725 -186.21902708 398.22418725 -188 393 C-188.70857241 387.59486434 -188.86055422 383.15638846 -185.52856445 378.5559082 C-182.09602655 375.06196729 -177.62394318 372.91459355 -173.375 370.5625 C-172.31539063 369.96050781 -171.25578125 369.35851562 -170.1640625 368.73828125 C-167.91801509 367.4623576 -165.66890832 366.19180652 -163.41699219 364.92626953 C-157.91975982 361.82730101 -152.46229454 358.6599983 -147 355.5 C-144.81520197 354.24071572 -142.63030624 352.98160092 -140.4453125 351.72265625 C-130.27401413 345.85436433 -120.13800773 339.92554841 -110 334 C-106.04214526 331.68667962 -102.08389337 329.37404251 -98.125 327.0625 C-97.13781982 326.48604736 -96.15063965 325.90959473 -95.13354492 325.31567383 C-87.83388651 321.05798345 -80.51299394 316.83803948 -73.1875 312.625 C-64.29100821 307.50712569 -55.4442998 302.31215952 -46.625 297.0625 C-42.08670934 294.36927288 -37.54494421 291.68198085 -33 289 C-32.37561035 288.63122742 -31.7512207 288.26245483 -31.10791016 287.88250732 C-27.24365892 285.60230244 -23.37197507 283.33555471 -19.49041748 281.08493042 C-18.2574336 280.36782461 -17.02662911 279.64695697 -15.79815674 278.92214966 C-14.09280528 277.91699379 -12.37859994 276.92690553 -10.6640625 275.9375 C-9.68904785 275.36902344 -8.7140332 274.80054688 -7.70947266 274.21484375 C-5 273 -5 273 0 273 C0 182.91 0 92.82 0 0 Z " fill="#9E9E9E" transform="translate(600,270)"/>
<path d="M0 0 C0 90.09 0 180.18 0 273 C-2.97 273.99 -5.94 274.98 -9 276 C-11.8154321 277.34208765 -11.8154321 277.34208765 -14.28515625 278.86328125 C-15.21505371 279.41298584 -16.14495117 279.96269043 -17.10302734 280.52905273 C-18.07965332 281.11759033 -19.0562793 281.70612793 -20.0625 282.3125 C-22.20170444 283.580929 -24.34103074 284.84915251 -26.48046875 286.1171875 C-27.56505371 286.76397461 -28.64963867 287.41076172 -29.76708984 288.07714844 C-34.78498185 291.06166116 -39.82979237 293.99948233 -44.875 296.9375 C-46.35371582 297.80072876 -46.35371582 297.80072876 -47.86230469 298.68139648 C-55.16288595 302.94085669 -62.48554407 307.1611197 -69.8125 311.375 C-78.70897106 316.49286239 -87.55645396 321.68659642 -96.375 326.9375 C-109.05164134 334.48250388 -121.80828274 341.88857277 -134.68603516 349.0859375 C-137.06256731 350.45856252 -139.355659 351.85996882 -141.65380859 353.3515625 C-150.51384959 358.99389734 -150.51384959 358.99389734 -154.37817383 359.00976562 C-156.53748705 358.25576164 -158.13406291 357.31859894 -160 356 C-160.98383667 355.40662842 -160.98383667 355.40662842 -161.98754883 354.80126953 C-163.34404187 353.97951801 -164.68659565 353.13431202 -166.01416016 352.26660156 C-167.95181704 351.03073189 -169.91565582 349.93641695 -171.94921875 348.8671875 C-185.43723105 341.68830685 -185.43723105 341.68830685 -188 334 C-188.09440845 330.94883392 -188.13023983 327.92077206 -188.12025452 324.86958313 C-188.12110894 323.92371926 -188.12196337 322.97785539 -188.12284368 322.00332898 C-188.12449642 318.82031555 -188.11898044 315.63735432 -188.11352539 312.4543457 C-188.11324345 310.17807008 -188.11340139 307.90179437 -188.1139679 305.6255188 C-188.1142556 299.43373723 -188.10836326 293.24197492 -188.10139394 287.05019784 C-188.09515587 280.5839372 -188.09455624 274.11767615 -188.09336853 267.65141296 C-188.09061045 256.79421616 -188.08435808 245.93702728 -188.07543945 235.07983398 C-188.06626225 223.8962406 -188.05918292 212.71264913 -188.05493164 201.52905273 C-188.05466892 200.83984493 -188.05440619 200.15063712 -188.05413551 199.44054423 C-188.05283048 195.98303568 -188.05156677 192.52552712 -188.05032361 189.06801856 C-188.03995472 160.37867425 -188.02226538 131.6893374 -188 103 C-187.33253754 102.63990341 -186.66507507 102.27980682 -185.97738647 101.90879822 C-182.88793126 100.24116064 -179.79943184 98.57176017 -176.7109375 96.90234375 C-175.13687134 96.05319397 -175.13687134 96.05319397 -173.53100586 95.18688965 C-166.51531486 91.39268941 -159.55232326 87.51561359 -152.625 83.5625 C-143.38649708 78.3082514 -134.05941481 73.24050073 -124.6875 68.22851562 C-117.61082461 64.43383755 -110.59913668 60.54214723 -103.625 56.5625 C-94.56742328 51.39576516 -85.40674876 46.43962629 -76.20129395 41.54327393 C-67.2554755 36.78184882 -58.40316374 31.87799525 -49.60180664 26.85473633 C-41.18101509 22.0639897 -32.65569863 17.47843344 -24.11303711 12.90942383 C-17.08450272 9.14392733 -10.12818107 5.28429688 -3.24609375 1.2578125 C-1 0 -1 0 0 0 Z " fill="#C5C5C5" transform="translate(600,270)"/>
<path d="M0 0 C3.13970043 1.63734007 6.17594096 3.3916623 9.21435547 5.20996094 C10.32302979 5.85263916 11.4317041 6.49531738 12.57397461 7.1574707 C15.79852516 9.03180655 19.00771846 10.93018828 22.21435547 12.83496094 C23.71223112 13.7126678 25.21081532 14.58916783 26.71044922 15.46386719 C29.37363111 17.02093935 32.03011839 18.58871309 34.68310547 20.16308594 C40.31303402 23.49498002 45.98354717 26.75643766 51.65185547 30.02246094 C52.75907959 30.66046631 53.86630371 31.29847168 55.00708008 31.95581055 C57.27772614 33.2638557 59.54847905 34.57171542 61.81933594 35.87939453 C67.28605527 39.02828147 72.75010434 42.18179357 78.21435547 45.33496094 C80.38100858 46.58498444 82.54767526 47.83498441 84.71435547 49.08496094 C89.0476888 51.58496094 93.38102214 54.08496094 97.71435547 56.58496094 C99.32612671 57.51453613 99.32612671 57.51453613 100.97045898 58.46289062 C103.11746515 59.70193957 105.26379745 60.94215699 107.40942383 62.18359375 C112.50429813 65.12952244 117.60548203 68.06259233 122.73086548 70.95507812 C125.16312035 72.32865428 127.59158637 73.70885164 130.01977539 75.08959961 C131.74437833 76.06656309 133.47444135 77.03386791 135.20458984 78.00097656 C136.24035156 78.59072266 137.27611328 79.18046875 138.34326172 79.78808594 C139.26179932 80.30532227 140.18033691 80.82255859 141.12670898 81.35546875 C143.21435547 82.83496094 143.21435547 82.83496094 144.21435547 85.83496094 C143.54194824 86.1962207 142.86954102 86.55748047 142.17675781 86.9296875 C130.4653622 93.22374258 118.75699518 99.52253627 107.08935547 105.89746094 C90.02328894 115.22170814 72.91274585 124.46274063 55.78564453 133.67431641 C48.03680477 137.84525392 40.30734231 142.05051727 32.5859375 146.27197266 C25.06002363 150.38265022 17.51499654 154.45745255 9.96435547 158.52246094 C8.82611328 159.13541016 7.68787109 159.74835938 6.51513672 160.37988281 C-4.36288901 166.23164818 -4.36288901 166.23164818 -9.78564453 165.83496094 C-12.62451172 164.68017578 -12.62451172 164.68017578 -15.58251953 163.04589844 C-16.69272461 162.44116699 -17.80292969 161.83643555 -18.94677734 161.21337891 C-20.14315109 160.54572464 -21.3394379 159.87791456 -22.53564453 159.20996094 C-23.78592575 158.52395904 -25.03691439 157.83924502 -26.28857422 157.15576172 C-28.86497292 155.74719065 -31.43787705 154.33252951 -34.00830078 152.91308594 C-39.6583652 149.79769719 -45.34942844 146.75867813 -51.03564453 143.70996094 C-60.28037116 138.73342559 -69.51371917 133.73600747 -78.74316406 128.73120117 C-86.12439527 124.73015429 -93.51610669 120.74885131 -100.91064453 116.77246094 C-111.6299633 111.00626146 -122.32371029 105.19464886 -133.00341797 99.35546875 C-138.05400107 96.59528697 -143.10754314 93.84052885 -148.16064453 91.08496094 C-150.02263559 90.06935773 -151.88461591 89.05373486 -153.74658203 88.03808594 C-154.5282373 87.61172852 -155.30989258 87.18537109 -156.11523438 86.74609375 C-156.66646973 86.44541992 -157.21770508 86.14474609 -157.78564453 85.83496094 C-156.47161274 81.89286556 -154.997078 81.53438562 -151.40673828 79.53417969 C-149.70179199 78.57390869 -149.70179199 78.57390869 -147.96240234 77.59423828 C-147.35352173 77.2568866 -146.74464111 76.91953491 -146.11730957 76.57196045 C-143.55159183 75.15037392 -140.99717563 73.70900861 -138.44174194 72.26904297 C-137.13117689 71.53097511 -135.81999286 70.79400533 -134.50820923 70.05810547 C-128.47875997 66.67436408 -122.50080925 63.20573208 -116.53564453 59.70996094 C-115.56151611 59.14035645 -114.5873877 58.57075195 -113.58374023 57.98388672 C-111.62634215 56.83919241 -109.66922736 55.69401352 -107.71240234 54.54833984 C-102.78056384 51.6611491 -97.84604273 48.77856168 -92.91064453 45.89746094 C-91.92330322 45.32092773 -90.93596191 44.74439453 -89.91870117 44.15039062 C-82.61924267 39.89271831 -75.29850434 35.67286899 -67.97314453 31.45996094 C-59.41159427 26.53532939 -50.89209054 21.54596347 -42.40414429 16.49603271 C-39.57574891 14.81526355 -36.74280635 13.14218569 -33.91064453 11.46777344 C-30.20788021 9.27822369 -26.52010223 7.067898 -22.84814453 4.82714844 C-21.45276686 3.99565413 -20.05697587 3.16485276 -18.66064453 2.33496094 C-18.07653809 1.96709473 -17.49243164 1.59922852 -16.890625 1.22021484 C-11.18612367 -2.11336871 -6.05880324 -2.533971 0 0 Z " fill="#636363" transform="translate(606.78564453125,544.1650390625)"/>
<path d="M0 0 C0.495 0.99 0.495 0.99 1 2 C1.80953125 2.26296875 2.6190625 2.5259375 3.453125 2.796875 C8.20994558 4.41042207 12.37306457 6.80720533 16.75 9.25 C18.72353622 10.33930677 20.69751318 11.42781533 22.671875 12.515625 C23.70505859 13.08603516 24.73824219 13.65644531 25.80273438 14.24414062 C31.18253565 17.19859472 36.59207713 20.09744253 42 23 C50.01432415 27.30743429 58.01684128 31.63507598 66 36 C79.4190485 43.33525766 92.89189915 50.57038008 106.36425781 57.80712891 C108.59920003 59.00768819 110.83390207 60.2086947 113.06835938 61.41015625 C115.25375693 62.58482357 117.43994183 63.7580274 119.62695312 64.9296875 C124.73877407 67.67475098 129.82568717 70.45177571 134.8671875 73.32421875 C135.77936035 73.84024658 136.6915332 74.35627441 137.63134766 74.88793945 C139.32221036 75.84813381 141.0072816 76.81863309 142.68505859 77.80151367 C143.43352051 78.22537354 144.18198242 78.6492334 144.953125 79.0859375 C145.91460449 79.6435376 145.91460449 79.6435376 146.89550781 80.21240234 C150.69421132 81.63405171 153.86579442 81.43302198 157.62695312 79.99707031 C158.50287109 79.52881836 159.37878906 79.06056641 160.28125 78.578125 C161.27648682 78.05347656 162.27172363 77.52882813 163.29711914 76.98828125 C164.35406982 76.41464844 165.41102051 75.84101562 166.5 75.25 C167.60786865 74.66089844 168.7157373 74.07179688 169.85717773 73.46484375 C173.24594819 71.65737049 176.62429415 69.83173957 180 68 C180.96695801 67.47728516 181.93391602 66.95457031 182.93017578 66.41601562 C188.37161002 63.47157906 193.79828383 60.50084541 199.22119141 57.52246094 C204.05540036 54.87388186 208.90258773 52.24931461 213.75 49.625 C214.7412085 49.08818604 215.73241699 48.55137207 216.75366211 47.99829102 C224.20425045 43.96587656 231.66388722 39.95039857 239.125 35.9375 C247.13785621 31.62749173 255.14012389 27.29913281 263.125 22.9375 C264.43706421 22.22122437 264.43706421 22.22122437 265.77563477 21.49047852 C269.58500533 19.41083222 273.39430463 17.33105929 277.20263672 15.24951172 C280.48774686 13.45522113 283.77492498 11.66476954 287.0625 9.875 C288.08037598 9.31804443 289.09825195 8.76108887 290.14697266 8.18725586 C291.10007324 7.6691333 292.05317383 7.15101074 293.03515625 6.6171875 C293.8744165 6.15940918 294.71367676 5.70163086 295.57836914 5.22998047 C298 4 298 4 300.74780273 2.96142578 C303.1602298 2.21873279 303.1602298 2.21873279 304 0 C304 0.66 304 1.32 304 2 C304.69528809 2.09442383 305.39057617 2.18884766 306.10693359 2.28613281 C311.4631186 3.60777711 316.0404331 6.83492128 320.74804688 9.63671875 C322.61832803 10.74604264 324.49979507 11.8343464 326.3828125 12.921875 C327.58146694 13.62895915 328.77940875 14.33725302 329.9765625 15.046875 C331.06018066 15.68463867 332.14379883 16.32240234 333.26025391 16.97949219 C336.1484703 19.10949387 337.47273507 20.78086058 339 24 C339.3984375 26.68359375 339.3984375 26.68359375 339.375 29.4375 C339.38273437 30.34371094 339.39046875 31.24992188 339.3984375 32.18359375 C338.71542671 37.0115426 337.24489163 40.05124999 333.33984375 43.02734375 C332.21707031 43.65769531 331.09429688 44.28804687 329.9375 44.9375 C328.97215332 45.49038696 328.97215332 45.49038696 327.98730469 46.05444336 C326.50748128 46.90061357 325.02360935 47.73972719 323.53662109 48.57324219 C319.68122487 50.74176341 315.8545357 52.95952647 312.02416992 55.171875 C309.81069866 56.45001395 307.59598267 57.72599935 305.38012695 59 C297.42169464 63.57967645 289.5136837 68.23838557 281.625 72.9375 C271.23973809 79.1192931 260.78238531 85.15853464 250.27880859 91.13598633 C239.78334836 97.11024791 229.34852473 103.18492884 218.92675781 109.28662109 C205.32650776 117.24846251 191.71001099 125.18193823 178.0625 133.0625 C176.99080566 133.68181396 175.91911133 134.30112793 174.81494141 134.93920898 C172.79974167 136.10145706 170.78101279 137.25761397 168.75830078 138.40673828 C167.00746801 139.41806194 165.27379694 140.46019568 163.56591797 141.54248047 C158.34704301 144.75869824 154.13576238 146.19889477 148 145 C145.09666402 143.94257299 142.56734978 142.48584432 139.9375 140.875 C139.17566406 140.43051514 138.41382813 139.98603027 137.62890625 139.52807617 C135.96239805 138.55322877 134.30094663 137.56969717 132.64404297 136.57861328 C129.91112134 134.94693542 127.16327238 133.34344065 124.41015625 131.74609375 C120.38043329 129.40685255 116.35609502 127.05876744 112.3359375 124.703125 C105.94718008 120.96365411 99.53883924 117.25874966 93.125 113.5625 C92.04541016 112.94028564 90.96582031 112.31807129 89.85351562 111.67700195 C87.6631748 110.41488483 85.47274498 109.15292215 83.28222656 107.89111328 C77.85340058 104.76319852 72.42680719 101.63141552 67 98.5 C64.83334417 97.24998121 62.6666775 95.99998122 60.5 94.75 C47.5 87.25 34.5 79.75 21.5 72.25 C20.42613037 71.6305249 19.35226074 71.0110498 18.24584961 70.37280273 C16.09278963 69.13052194 13.93995522 67.88785012 11.78735352 66.64477539 C6.75898539 63.74163888 1.72860186 60.84221133 -3.31021118 57.95724487 C-5.08432545 56.94122816 -6.85769919 55.92393072 -8.63085938 54.90625 C-10.84815314 53.63417708 -13.06681075 52.36447715 -15.28710938 51.09765625 C-34.21902708 40.22418725 -34.21902708 40.22418725 -36 35 C-36.69917696 29.66653472 -36.88865994 25.15156772 -33.60766602 20.59985352 C-29.83018294 16.84072723 -24.87544513 14.49702389 -20.25 11.9375 C-18.12962731 10.73930887 -16.00982393 9.54010964 -13.890625 8.33984375 C-12.88580078 7.77507324 -11.88097656 7.21030273 -10.84570312 6.62841797 C-7.16121371 4.52001505 -3.57698035 2.285293 0 0 Z " fill="#7C7C7C" transform="translate(448,628)"/>
<path d="M0 0 C4.62799668 0.68091764 7.80952247 1.74207888 11.8671875 4.10546875 C12.98754395 4.75201416 14.10790039 5.39855957 15.26220703 6.06469727 C16.46658132 6.77211099 17.67084281 7.47971678 18.875 8.1875 C20.13218264 8.91739043 21.38983941 9.64646475 22.64794922 10.37475586 C25.83716971 12.22383249 29.02006445 14.08349096 32.20092773 15.94689941 C34.8863833 17.51885118 37.57610509 19.08345251 40.265625 20.6484375 C44.18475378 22.93070793 48.10100792 25.21781329 52.015625 27.5078125 C61.55822933 33.08429156 71.14057793 38.59211491 80.71777344 44.10888672 C87.22217941 47.85651605 93.72375795 51.60904961 100.2253418 55.36157227 C105.77686292 58.56532462 111.33020797 61.76584577 116.88671875 64.9609375 C123.2643551 68.62937282 129.63449309 72.310564 136 76 C136.8544873 76.4935498 137.70897461 76.98709961 138.58935547 77.49560547 C140.77274244 78.75986058 142.95007458 80.03376025 145.125 81.3125 C145.74076904 81.66747559 146.35653809 82.02245117 146.9909668 82.38818359 C148.36227412 83.2026076 149.68812382 84.0929437 151 85 C151 85.66 151 86.32 151 87 C150.32759277 87.36125977 149.65518555 87.72251953 148.96240234 88.09472656 C137.25100673 94.38878165 125.54263971 100.68757533 113.875 107.0625 C96.80893347 116.3867472 79.69839038 125.62777969 62.57128906 134.83935547 C55.7017298 138.53700613 48.84585525 142.25867505 42 146 C40.23181172 146.9636167 38.46358196 147.92715728 36.6953125 148.890625 C33.05825364 150.87306179 29.42694659 152.86558574 25.79925537 154.8651123 C23.41196795 156.17861628 21.02082761 157.48499626 18.62890625 158.79003906 C16.90825399 159.73179918 15.19235365 160.68222476 13.4765625 161.6328125 C12.42984375 162.20257812 11.383125 162.77234375 10.3046875 163.359375 C9.37640137 163.86952148 8.44811523 164.37966797 7.49169922 164.90527344 C5 166 5 166 1 166 C-0.0542652 148.22848522 -0.13473565 130.48597937 -0.10139394 112.69154406 C-0.09504131 108.71447968 -0.09454737 104.73741412 -0.09336853 100.76034546 C-0.09028968 93.26705227 -0.08212394 85.77377408 -0.07201904 78.28048742 C-0.06074936 69.73358813 -0.05532041 61.18668804 -0.05032361 52.63978314 C-0.03993747 35.09318016 -0.02240652 17.54659168 0 0 Z " fill="#4F4F4F" transform="translate(600,543)"/>
<path d="M0 0 C4.01731852 2.46517273 5.54908885 4.58923009 7 9 C8.73625513 23.27337006 3.22609693 36.30836869 -4.953125 47.7265625 C-8.87960268 52.71968175 -13.11545028 57.43368514 -17.43359375 62.08984375 C-20.50481381 65.83504727 -20.1461601 69.78391209 -20.1328125 74.37890625 C-20.13376923 75.1056102 -20.13472595 75.83231415 -20.13571167 76.58103943 C-20.13639215 78.12181688 -20.13454706 79.6625972 -20.13037109 81.20336914 C-20.12507507 83.52952775 -20.13029223 85.85548845 -20.13671875 88.18164062 C-20.13980695 95.84563384 -19.95863159 103.38420458 -19 111 C-16.51264897 108.80370444 -16.03813372 108.30245271 -15.6015625 104.83984375 C-15.65231664 96.38927958 -16.33928434 88.41209798 -18.02001953 80.11694336 C-19.03059278 74.9463916 -19.50972959 70.62773747 -16.76831055 65.85620117 C-15 64 -15 64 -12.65576172 63.5300293 C-11.30635498 63.55190308 -11.30635498 63.55190308 -9.9296875 63.57421875 C-8.46208984 63.58678711 -8.46208984 63.58678711 -6.96484375 63.59960938 C-5.43537109 63.64311523 -5.43537109 63.64311523 -3.875 63.6875 C-2.84761719 63.69716797 -1.82023438 63.70683594 -0.76171875 63.71679688 C6.83215962 63.83215962 6.83215962 63.83215962 8 65 C7.875 68.375 7.875 68.375 7 72 C3.24645152 74.97976091 0.39993929 75.34285514 -4.3125 75.1875 C-5.91544922 75.14689453 -5.91544922 75.14689453 -7.55078125 75.10546875 C-8.35902344 75.07066406 -9.16726563 75.03585937 -10 75 C-9.7834375 76.29357422 -9.7834375 76.29357422 -9.5625 77.61328125 C-8.4305169 85.05764233 -7.74375374 92.40480154 -7.625 99.9375 C-7.59921875 100.71714111 -7.5734375 101.49678223 -7.546875 102.30004883 C-7.52324972 109.22446983 -9.5913581 114.46458747 -14.375 119.5 C-17.64465976 121.36837701 -19.29285164 121.69509032 -23 121 C-30.18414795 115.65365734 -31.24412518 107.58000431 -32.57885742 99.27563477 C-33.24517234 94.09305661 -33.34063582 88.96999871 -33.3125 83.75 C-33.30686035 82.62956299 -33.3012207 81.50912598 -33.29541016 80.35473633 C-32.93528148 54.97279618 -29.36081343 25.09489129 -12.75 4.625 C-8.67066103 0.73108553 -5.70358314 -0.69839794 0 0 Z " fill="#F0F0F0" transform="translate(701,872)"/>
<path d="M0 0 C5.88107639 0.31467014 5.88107639 0.31467014 6.9921875 1.42578125 C6.86136715 5.93405193 6.05533801 10.36577503 4.9921875 14.73828125 C3.68584837 20.23660417 3.35398751 25.79883893 2.9921875 31.42578125 C6.98779754 29.37470143 8.73917462 27.80788304 10.4921875 23.67578125 C10.90082031 22.71285156 11.30945313 21.74992188 11.73046875 20.7578125 C13.40114619 16.34577579 14.9005762 11.88546798 16.29296875 7.37792969 C17.21049161 4.46173621 17.79615313 2.62181562 19.9921875 0.42578125 C22.68058135 0.15586219 25.28360686 0.33840768 27.9921875 0.42578125 C28.27363081 7.60258575 27.18989609 14.3609191 25.9921875 21.42578125 C25.70601562 23.16021484 25.70601562 23.16021484 25.4140625 24.9296875 C24.94580153 27.76266635 24.46977662 30.59436003 23.9921875 33.42578125 C28.9421875 30.12578125 33.8921875 26.82578125 38.9921875 23.42578125 C40.3121875 24.08578125 41.6321875 24.74578125 42.9921875 25.42578125 C43.09758695 28.30791109 43.10200434 29.82365365 41.9921875 32.42578125 C38.99923131 35.00650154 35.57694412 36.86146326 32.1796875 38.86328125 C23.88003116 44.00176176 23.88003116 44.00176176 19.46289062 52.30688477 C18.99882818 54.98343703 18.62747274 57.65998431 18.31591797 60.35839844 C16.83192678 69.8353497 12.48227117 80.29914071 4.9921875 86.42578125 C1.08192474 88.7719389 -2.50104733 88.97924364 -7.0078125 88.42578125 C-10.48230272 86.40482497 -12.71175799 84.31394479 -14.0078125 80.42578125 C-14.89619215 71.9861746 -11.99039727 66.2107605 -6.80078125 59.625 C-2.67332582 54.92555075 1.5318783 50.90331014 6.5546875 47.17578125 C10.62234713 44.10501711 10.62234713 44.10501711 12.1171875 39.42578125 C12.0759375 38.43578125 12.0346875 37.44578125 11.9921875 36.42578125 C11.67765625 36.90789063 11.363125 37.39 11.0390625 37.88671875 C6.48833146 44.60315914 6.48833146 44.60315914 2.9921875 45.42578125 C-1.28191983 45.3494579 -3.28197878 45.13251408 -6.3828125 42.11328125 C-11.2421204 34.07673357 -9.74413853 22.68212909 -7.72143555 13.85253906 C-7.54781494 13.15483398 -7.37419434 12.45712891 -7.1953125 11.73828125 C-7.0300708 11.06764648 -6.8648291 10.39701172 -6.69458008 9.70605469 C-4.31548301 0.91515107 -4.31548301 0.91515107 0 0 Z " fill="#F1F1F1" transform="translate(619.0078125,917.57421875)"/>
<path d="M0 0 C3.48696585 2.21897827 5.56639627 4.1393303 7 8 C9.28312148 29.99699737 0.95111327 50.22658228 -12.125 67.6875 C-12.70507812 68.39261719 -13.28515625 69.09773437 -13.8828125 69.82421875 C-15.43841675 72.85383961 -14.85579918 74.77949257 -14 78 C-12.85712614 79.35445367 -12.85712614 79.35445367 -9.8125 79.3125 C-3.88897968 78.82696555 -0.77747693 75.88339625 3.125 71.6875 C4.07375 70.800625 5.0225 69.91375 6 69 C8.1796875 69.33203125 8.1796875 69.33203125 10 70 C10.54846416 73.76089712 10.741453 75.87106449 8.6171875 79.10546875 C3.34753995 85.18495391 -1.67171745 90.16299269 -9.94921875 91.2578125 C-15.10303655 91.55231637 -17.95018971 90.39053885 -22 87 C-28.59367197 80.16211796 -28.45340617 71.1915014 -28.3125 62.3125 C-28.30049561 61.14928223 -28.28849121 59.98606445 -28.27612305 58.78759766 C-27.98109165 40.89739583 -24.66320426 17.65513024 -11.984375 3.796875 C-8.18591413 0.69431536 -5.00585776 -1.11241284 0 0 Z " fill="#F1F1F1" transform="translate(594,872)"/>
<path d="M0 0 C1.28269686 4.45970764 0.6060842 7.71168332 -0.4375 12.1875 C-1.76993312 18.20005833 -2.39103278 23.84485436 -2 30 C2.946129 27.94734033 4.0244078 24.749 6 20 C7.37919988 16.34191004 8.59349466 12.63432548 9.79882812 8.91601562 C10.04181641 8.19478516 10.28480469 7.47355469 10.53515625 6.73046875 C10.745354 6.08489014 10.95555176 5.43931152 11.17211914 4.77416992 C12.1635492 2.64950988 13.15475471 1.44737547 15 0 C18.625 -0.25 18.625 -0.25 22 0 C22.495 0.495 22.495 0.495 23 1 C22.77661436 7.47656855 21.60005622 13.9332686 20.4765625 20.3046875 C20.32972015 21.14991974 20.18287781 21.99515198 20.03158569 22.86599731 C19.72241003 24.63933402 19.41140609 26.41235288 19.09863281 28.18505859 C18.62752573 30.86065543 18.16496702 33.53763403 17.703125 36.21484375 C10.71355229 76.33656147 10.71355229 76.33656147 -1.3125 87.0625 C-5.28507597 88.44828231 -8.85128462 88.79474512 -13 88 C-16.5694752 86.063133 -18.69404468 83.91786596 -20 80 C-20.85719942 71.85660549 -18.10551511 66.17347506 -13.2734375 59.6796875 C-8.83031351 54.43204723 -3.77275664 50.21203816 1.6796875 46.04296875 C3.94733971 44.04636588 5.03295576 42.82888228 6 40 C6 38.68 6 37.36 6 36 C5.443125 36.928125 4.88625 37.85625 4.3125 38.8125 C1.47611063 42.72211778 -0.75187364 44.55037473 -5.5 45.5 C-9.20819162 44.75836168 -10.63675066 42.87422217 -13 40 C-17.33477759 31.30023731 -15.45084318 20.44126053 -13.25 11.3125 C-13.01482666 10.306427 -13.01482666 10.306427 -12.77490234 9.2800293 C-10.74283996 1.63203227 -7.82802758 -0.60215597 0 0 Z " fill="#F0F0F0" transform="translate(730,918)"/>
<path d="M0 0 C1.875 -0.36328125 1.875 -0.36328125 4 -0.3125 C4.70125 -0.30863281 5.4025 -0.30476562 6.125 -0.30078125 C8 0 8 0 10 2 C10.30297852 4.04370117 10.30297852 4.04370117 10.37890625 6.54296875 C10.43014648 7.90711914 10.43014648 7.90711914 10.48242188 9.29882812 C10.50884766 10.25208984 10.53527344 11.20535156 10.5625 12.1875 C10.7574813 18.19873203 11.00631349 24.06251782 12 30 C12.22139648 29.47156494 12.44279297 28.94312988 12.67089844 28.39868164 C13.69627666 25.95287183 14.72313172 23.50768457 15.75 21.0625 C16.09804688 20.23169922 16.44609375 19.40089844 16.8046875 18.54492188 C17.86283165 16.02693071 18.92921454 13.51264 20 11 C20.35900391 10.1529248 20.71800781 9.30584961 21.08789062 8.43310547 C21.43529297 7.6288916 21.78269531 6.82467773 22.140625 5.99609375 C22.45032227 5.27478271 22.76001953 4.55347168 23.07910156 3.81030273 C24 2 24 2 26 0 C29.5625 -0.1875 29.5625 -0.1875 33 0 C34.60998393 1.60998393 34.20331159 3.40206502 34.28125 5.62890625 C34.33732422 7.05879883 34.33732422 7.05879883 34.39453125 8.51757812 C34.44673828 10.02481445 34.44673828 10.02481445 34.5 11.5625 C34.73275177 18.10110067 35.07533184 24.51961733 36 31 C40.56857701 25.18438794 43.49229923 20.81972934 43.0625 13.25 C42.81615646 8.85250571 42.78456387 6.25286044 45.5 2.6875 C47.94735097 0.35059954 49.81234769 -0.47538322 53.1875 -0.6875 C57 0 57 0 58.75390625 1.69140625 C60.34322677 4.63588407 60.15855912 6.3298819 59.75 9.625 C59.64171875 10.58664062 59.5334375 11.54828125 59.421875 12.5390625 C59 15 59 15 58 17 C58.66386719 16.84402344 59.32773437 16.68804688 60.01171875 16.52734375 C60.89472656 16.33269531 61.77773438 16.13804687 62.6875 15.9375 C63.55761719 15.74027344 64.42773438 15.54304687 65.32421875 15.33984375 C68.16001276 14.97967721 70.24789982 15.29090031 73 16 C73.75 18.1875 73.75 18.1875 74 21 C71.88388365 24.32532569 70.77269733 25.74243422 67 27 C65.02265434 27.09455661 63.04209917 27.12989394 61.0625 27.125 C60.02222656 27.12757813 58.98195313 27.13015625 57.91015625 27.1328125 C55.42334029 27.01932023 53.36907593 26.71928571 51 26 C50.60554687 27.09828125 50.60554687 27.09828125 50.203125 28.21875 C47.32572794 34.87039515 42.03850804 41.01715427 36 45 C32.875 45.5625 32.875 45.5625 30 45 C26.24339424 42.0159792 25.25531595 39.37445336 24.25 34.75 C24.00765625 33.67234375 23.7653125 32.5946875 23.515625 31.484375 C23.34546875 30.66453125 23.1753125 29.8446875 23 29 C22.60167969 29.83144531 22.20335937 30.66289063 21.79296875 31.51953125 C21.26316406 32.60621094 20.73335938 33.69289063 20.1875 34.8125 C19.66542969 35.89144531 19.14335937 36.97039063 18.60546875 38.08203125 C15.62424329 43.50046293 15.62424329 43.50046293 11.87890625 44.65234375 C5.65323676 45.41874151 5.65323676 45.41874151 2.5625 43.4375 C-3.37251188 34.17888147 -2.0754608 21.40172639 -2.1875 10.75 C-2.20055176 10.02321045 -2.21360352 9.2964209 -2.22705078 8.54760742 C-2.23325007 4.80544903 -2.13054816 3.19582223 0 0 Z " fill="#F1F1F1" transform="translate(486,918)"/>
<path d="M0 0 C5.88107639 0.31467014 5.88107639 0.31467014 6.9921875 1.42578125 C7.60576649 8.77445991 6.61849384 15.92390164 5.4296875 23.1640625 C5.00937704 26.29762706 4.91577454 29.26897068 4.9921875 32.42578125 C5.88421875 31.76449219 6.77625 31.10320313 7.6953125 30.421875 C8.87712367 29.56834471 10.05944207 28.71551645 11.2421875 27.86328125 C11.82871094 27.42564453 12.41523438 26.98800781 13.01953125 26.53710938 C17.45013609 23.37594749 17.45013609 23.37594749 20.4140625 23.6484375 C21.19523437 24.03322266 21.19523437 24.03322266 21.9921875 24.42578125 C22.59692821 27.32853667 22.8378595 28.64714469 21.9921875 31.42578125 C19.0186412 34.59391545 15.56418537 36.97343875 11.9921875 39.42578125 C11.13496094 40.03292969 10.27773438 40.64007812 9.39453125 41.265625 C3.37454044 45.42578125 3.37454044 45.42578125 0.9921875 45.42578125 C0.8890625 46.68390625 0.7859375 47.94203125 0.6796875 49.23828125 C-0.75247995 61.79426982 -4.97788658 76.21109981 -14.0078125 85.42578125 C-18.72740417 88.70897545 -22.43221733 89.04529182 -28.0078125 88.42578125 C-30.8178471 86.63214214 -32.51721718 85.4069719 -34.0078125 82.42578125 C-35.22576405 73.68428086 -33.15190085 67.48869621 -28.0078125 60.42578125 C-23.64746439 55.39684643 -19.25745922 51.10443805 -13.5078125 47.73828125 C-10.88053341 45.81125891 -10.1087197 44.7678235 -9.17578125 41.60546875 C-8.73400569 38.39451466 -8.42905816 35.20064025 -8.20410156 31.96777344 C-7.79814141 26.71048845 -7.16805248 21.47649978 -6.5703125 16.23828125 C-6.45969482 15.13895264 -6.34907715 14.03962402 -6.23510742 12.90698242 C-6.06265503 11.34814331 -6.06265503 11.34814331 -5.88671875 9.7578125 C-5.7894751 8.82686768 -5.69223145 7.89592285 -5.59204102 6.93676758 C-4.79961714 3.53096751 -3.60548653 0.76458761 0 0 Z " fill="#F1F1F1" transform="translate(402.0078125,917.57421875)"/>
<path d="M0 0 C3.3020291 1.62204938 5.17219129 2.90879761 7.375 5.8125 C9.00498457 11.517446 8.11668994 16.0632968 5.33203125 21.140625 C1.84042135 26.01454381 -3.25815968 28.59643903 -9 30 C-10.32 30 -11.64 30 -13 30 C-11.32475379 32.33077734 -9.9361368 33.78455508 -7.08203125 34.44140625 C-0.53534645 34.80060489 4.59778093 32.57080238 10 29 C11.81915817 27.34246456 11.81915817 27.34246456 13.375 25.625 C14.24125 24.75875 15.1075 23.8925 16 23 C18.10990375 23.27452279 19.47427861 23.47427861 21 25 C20.69275551 30.32557124 19.88281366 33.30659188 16 37 C7.42105825 42.82556518 0.48681072 46.0824188 -10 45 C-15.67090631 43.78944837 -19.94681917 41.75292351 -23.625 37.1875 C-27.28737467 30.86442578 -26.98560914 24.05726242 -26 17 C-23.82896719 9.44599544 -19.65896287 4.98361796 -13 1 C-9.05322303 -0.97338848 -4.30160477 -0.44290148 0 0 Z " fill="#F0F0F0" transform="translate(457,918)"/>
<path d="M0 0 C1.32 0.33 2.64 0.66 4 1 C5.29180686 18.77430549 -0.72557588 32.55277628 -9 48 C-9.33 48 -9.66 48 -10 48 C-10.91944022 32.57383628 -8.75667291 13.13500936 0 0 Z " fill="#0A0A0A" transform="translate(588,882)"/>
<path d="M0 0 C1.32 0.33 2.64 0.66 4 1 C4.74560823 16.16070063 -1.70801627 29.24837352 -11 41 C-11.33 41 -11.66 41 -12 41 C-11.50625866 33.72521507 -10.18757043 26.95874638 -8.25 19.9375 C-8.01023437 19.00873047 -7.77046875 18.07996094 -7.5234375 17.12304688 C-5.81689639 10.85546677 -3.41469659 5.52292277 0 0 Z " fill="#0F0F0F" transform="translate(695,882)"/>
<path d="M0 0 C1.9375 1.125 1.9375 1.125 3 3 C3.5 6.4375 3.5 6.4375 3 10 C0.88564247 12.57687323 -0.67103515 13.74473348 -3.97265625 14.37890625 C-7.38368336 14.57655455 -9.64438633 14.2168376 -12.5625 12.4375 C-14 10 -14 10 -13.9375 6.4375 C-12.68965517 1.86206897 -12.68965517 1.86206897 -10 0 C-6.22941703 -1.25686099 -3.86146303 -0.82745636 0 0 Z " fill="#EEEEEE" transform="translate(410,897)"/>
<path d="M0 0 C0.33 0 0.66 0 1 0 C1 3.3 1 6.6 1 10 C1.99 10.33 2.98 10.66 4 11 C5.32799038 18.58851644 6.20758625 25.98940392 6.25 33.6875 C6.26353516 34.71133789 6.26353516 34.71133789 6.27734375 35.75585938 C6.25539274 39.39606815 6.07595499 40.88606752 4 44 C3.34 44 2.68 44 2 44 C-0.52574779 34.85662214 -0.22867732 25.76660029 -0.125 16.375 C-0.11494793 14.78255773 -0.10582603 13.19010929 -0.09765625 11.59765625 C-0.07582408 7.73161635 -0.04141784 3.86587764 0 0 Z " fill="#1D1D1D" transform="translate(680,939)"/>
<path d="M0 0 C1.91436909 5.71688304 -0.62450491 11.19874256 -3.17578125 16.39453125 C-6.30402462 21.76968627 -6.30402462 21.76968627 -9.16015625 22.71484375 C-9.76730469 22.80894531 -10.37445313 22.90304687 -11 23 C-12.49590709 20.00818583 -12.42743011 18.3583794 -12 15 C-8.96809428 9.135518 -4.80504627 4.46182868 0 0 Z " fill="#0D0D0D" transform="translate(389,974)"/>
<path d="M0 0 C1.98135871 4.98378572 -0.7048594 9.17648746 -2.5859375 13.84765625 C-4.11074664 17.24688547 -5.7323991 20.06051736 -8 23 C-9.32 22.67 -10.64 22.34 -12 22 C-12.90812214 15.98369084 -11.81610566 13.15363233 -8.25 8.1875 C-5.75745652 4.91488273 -3.41047128 2.31205373 0 0 Z " fill="#0E0E0E" transform="translate(732,974)"/>
<path d="M0 0 C-3.45652174 17.85869565 -3.45652174 17.85869565 -10 23 C-10.99 22.67 -11.98 22.34 -13 22 C-13.70541755 15.53367242 -12.48841018 12.28572951 -8.66015625 7.0546875 C-2.96007605 0 -2.96007605 0 0 0 Z " fill="#0C0C0C" transform="translate(628,974)"/>
<path d="M0 0 C2.25 0.4375 2.25 0.4375 3.25 1.4375 C3.6875 4.6875 3.6875 4.6875 3.25 8.4375 C-0.41213721 12.44841219 -3.33921275 14.0510152 -8.75 14.4375 C-8.4237662 8.13031316 -7.44715728 1.18477502 0 0 Z " fill="#0E0E0E" transform="translate(450.75,926.5625)"/>
</svg>
