<?xml version="1.0" encoding="UTF-8"?>
<svg version="1.1" xmlns="http://www.w3.org/2000/svg" width="800" height="1480">
<path d="M0 0 C264 0 528 0 800 0 C800 488.4 800 976.8 800 1480 C536 1480 272 1480 0 1480 C0 991.6 0 503.2 0 0 Z " fill="#000000" transform="translate(0,0)"/>
<path d="M0 0 C4.21350307 1.78480429 8.07762041 4.02770425 12 6.375 C13.10867432 7.01767822 14.21734863 7.66035645 15.35961914 8.32250977 C18.5841697 10.19684561 21.79336299 12.09522734 25 14 C26.49787565 14.87770686 27.99645985 15.7542069 29.49609375 16.62890625 C32.15927564 18.18597841 34.81576292 19.75375215 37.46875 21.328125 C43.09867855 24.66001908 48.7691917 27.92147673 54.4375 31.1875 C55.54472412 31.82550537 56.65194824 32.46351074 57.79272461 33.12084961 C60.06337068 34.42889477 62.33412358 35.73675448 64.60498047 37.04443359 C70.0716998 40.19332054 75.53574887 43.34683264 81 46.5 C83.16665311 47.7500235 85.33331979 49.00002347 87.5 50.25 C100.5 57.75 113.5 65.25 126.5 72.75 C127.57411133 73.36939453 128.64822266 73.98878906 129.75488281 74.62695312 C131.90627302 75.8687125 134.05667629 77.11218346 136.20605469 78.35742188 C141.2489437 81.2762638 146.29958724 84.1775356 151.38757324 87.01696777 C153.1865989 88.02201747 154.98239801 89.03260651 156.77734375 90.04492188 C159.02893356 91.31254921 161.28644473 92.56973796 163.55078125 93.81445312 C164.57042969 94.39130859 165.59007812 94.96816406 166.640625 95.5625 C167.53297852 96.05878906 168.42533203 96.55507813 169.34472656 97.06640625 C173.26593816 99.92186743 177.22912054 103.18259635 178.55366814 108.02354157 C178.76180412 110.30582494 178.78610531 112.52039891 178.74171448 114.81178284 C178.74895772 115.67515996 178.75620097 116.53853709 178.76366371 117.42807716 C178.78051494 120.30895427 178.75463818 123.18781745 178.72875977 126.06860352 C178.73197998 128.13869771 178.73779863 130.20878925 178.74601746 132.27886963 C178.76054378 137.89258315 178.73762102 143.50557982 178.70715833 149.11920667 C178.6807851 154.99539182 178.68608977 160.8715552 178.6872406 166.74778748 C178.68443211 176.61445087 178.65839934 186.48083725 178.61743164 196.34741211 C178.57024342 207.75426533 178.55443787 219.16081531 178.5566383 230.5677591 C178.55866483 242.71355928 178.53784135 254.85924258 178.51029849 267.00500751 C178.50390531 270.50442178 178.50177507 274.00381719 178.50058174 277.50323677 C178.49756753 283.00183833 178.47924601 288.50018544 178.44908333 293.998703 C178.44032331 296.01670715 178.43662921 298.03474058 178.43836594 300.05276299 C178.43983936 302.80717913 178.42286006 305.56088385 178.40113831 308.31520081 C178.40578411 309.11393901 178.41042992 309.91267721 178.41521651 310.7356196 C178.35253248 315.54789614 177.60486317 318.80529514 175 323 C173.15576172 324.65673828 173.15576172 324.65673828 171.0546875 325.9453125 C170.25514648 326.44192383 169.45560547 326.93853516 168.63183594 327.45019531 C167.76333008 327.96163086 166.89482422 328.47306641 166 329 C165.09797852 329.53463867 164.19595703 330.06927734 163.26660156 330.62011719 C160.23127476 332.39320853 157.18031965 334.13660045 154.125 335.875 C151.80777679 337.20172907 149.49113865 338.52940002 147.17578125 339.859375 C146.58429794 340.19901276 145.99281464 340.53865051 145.38340759 340.88858032 C138.98773989 344.56914753 132.65076889 348.34652203 126.3125 352.125 C116.94005974 357.70582536 107.50423153 363.15328675 97.99267578 368.49316406 C91.85208998 371.94288313 85.75994241 375.46196027 79.70068359 379.05224609 C73.16360627 382.92005551 66.58277893 386.71061308 60 390.5 C52.81548437 394.63689623 45.63674692 398.78116278 38.5 403 C31.67817401 407.03048776 24.82683 411.0093482 17.96582031 414.97265625 C16.22029044 415.98105681 14.47537361 416.99051832 12.73046875 418 C11.65796875 418.61875 10.58546875 419.2375 9.48046875 419.875 C8.52035889 420.42929687 7.56024902 420.98359375 6.57104492 421.5546875 C1.59866013 424.34991283 -2.17827617 426.2051785 -8 425 C-12.49871559 423.00185517 -16.66794349 420.47858619 -20.875 417.9375 C-22.11730226 417.20472183 -23.36064875 416.47371139 -24.60498047 415.74438477 C-27.1627464 414.24259476 -29.71515187 412.73226843 -32.26367188 411.21484375 C-37.84894803 407.89491932 -43.49029484 404.67252521 -49.125 401.4375 C-51.27384953 400.19732824 -53.42228699 398.9564422 -55.5703125 397.71484375 C-62.04510022 393.97348344 -68.52236343 390.23642517 -75 386.5 C-77.1666775 385.25001878 -79.33334417 384.00001879 -81.5 382.75 C-82.5725 382.13125 -83.645 381.5125 -84.75 380.875 C-88 379 -91.25 377.125 -94.5 375.25 C-95.57266113 374.63116943 -96.64532227 374.01233887 -97.75048828 373.37475586 C-99.91557071 372.12564482 -102.08060982 370.87645871 -104.24560547 369.62719727 C-109.68615706 366.48797691 -115.12747216 363.35009437 -120.5703125 360.21484375 C-133.22282101 352.92476356 -145.86317783 345.61485184 -158.4609375 338.23046875 C-161.99226578 336.1626785 -165.53705348 334.12329545 -169.1015625 332.11328125 C-169.88200928 331.66831299 -170.66245605 331.22334473 -171.46655273 330.76489258 C-172.88513007 329.95697248 -174.30869982 329.15771528 -175.73852539 328.36987305 C-176.3649292 328.01062744 -176.99133301 327.65138184 -177.63671875 327.28125 C-178.16998779 326.98283203 -178.70325684 326.68441406 -179.25268555 326.37695312 C-182.49407648 323.82260845 -185.4815394 321.16188955 -186.46497357 317.06114197 C-186.64053818 314.784406 -186.66183113 312.55385097 -186.62818909 310.27050781 C-186.63528347 309.40390156 -186.64237786 308.5372953 -186.64968723 307.64442825 C-186.66725886 304.74687306 -186.64916673 301.85066076 -186.63110352 298.953125 C-186.63624264 296.8733255 -186.64352387 294.79353034 -186.65278625 292.71374512 C-186.67130909 287.06908559 -186.65835581 281.42489809 -186.63869596 275.78025818 C-186.62231562 269.87335659 -186.6311215 263.96648504 -186.63621521 258.05957031 C-186.64073684 248.13989722 -186.62486189 238.22041266 -186.59692383 228.30078125 C-186.56487175 216.83199843 -186.56488752 205.36355565 -186.5821386 193.89474869 C-186.5980018 182.86252834 -186.59127141 171.83043267 -186.57420158 160.79821777 C-186.56732862 156.1029529 -186.56836611 151.40778789 -186.57574654 146.71252441 C-186.58340703 141.18352921 -186.57129054 135.65492103 -186.54389763 130.12599182 C-186.53701031 128.09669646 -186.53691953 126.06736498 -186.54411316 124.03807068 C-186.55280098 121.26811245 -186.53686308 118.49935041 -186.5146637 115.72949219 C-186.52290446 114.92618092 -186.53114523 114.12286964 -186.53963572 113.29521561 C-186.46257268 108.08643615 -185.41474983 105.14945017 -182 101 C-179.6796875 99.19140625 -179.6796875 99.19140625 -176.875 97.5625 C-176.33206299 97.2423291 -175.78912598 96.9221582 -175.22973633 96.59228516 C-173.16162789 95.37974734 -171.0808205 94.19059272 -169 93 C-167.06858574 91.88224391 -165.13763345 90.76368936 -163.20703125 89.64453125 C-158.75046606 87.06525751 -154.28886392 84.4949474 -149.82421875 81.9296875 C-143.53401095 78.31270704 -137.26366721 74.6627014 -131 71 C-122.68261098 66.13875142 -114.34794193 61.30858808 -106 56.5 C-93.63977482 49.37913592 -81.31532673 42.19816622 -69 35 C-65.04214526 32.68667962 -61.08390383 30.37402461 -57.125 28.0625 C-55.66271973 27.20869751 -55.66271973 27.20869751 -54.17089844 26.33764648 C-48.80906869 23.2104975 -43.44035752 20.09559643 -38.0625 16.99609375 C-37.48184784 16.66142593 -36.90119568 16.32675812 -36.302948 15.98194885 C-33.5038658 14.3691904 -30.70387183 12.75803796 -27.90283203 11.14868164 C-26.88560059 10.5633667 -25.86836914 9.97805176 -24.8203125 9.375 C-23.83708008 8.81425781 -22.85384766 8.25351562 -21.84082031 7.67578125 C-19.97704396 6.57635182 -18.14075303 5.42864018 -16.33886719 4.23046875 C-10.86864661 0.6300307 -6.58277256 -1.65909455 0 0 Z " fill="#F7F7F7" transform="translate(404,483)"/>
<path d="M0 0 C18.14384191 9.07192096 18.14384191 9.07192096 25.6875 13.5 C34.150327 18.39928034 42.68082896 23.1653243 51.25 27.875 C61.40655061 33.46038159 71.53932241 39.08517831 81.64697266 44.75878906 C90.76805564 49.87667311 99.90980497 54.9568029 109.05712891 60.02758789 C110.12366699 60.61918701 111.19020508 61.21078613 112.2890625 61.8203125 C113.22443848 62.33867676 114.15981445 62.85704102 115.12353516 63.39111328 C118.42816079 65.23948223 121.71339067 67.11978408 125 69 C125.04671183 88.86235842 125.08198484 108.72470571 125.10362434 128.58710766 C125.1139388 137.80947391 125.1280024 147.03180604 125.15087891 156.25415039 C125.17080757 164.29193895 125.1837152 172.3297028 125.18817699 180.36751539 C125.19078525 184.62383254 125.19691937 188.88007901 125.21146011 193.13637352 C125.22503573 197.14262226 125.22922268 201.14877118 125.22621536 205.15504074 C125.22676553 206.62521088 125.23074313 208.09538435 125.23841095 209.56553459 C125.24837129 211.57375039 125.24477509 213.58201976 125.24050903 215.59025574 C125.24235262 216.71392138 125.24419621 217.83758703 125.24609566 218.99530315 C124.89326705 223.30315246 123.99789689 226.04406221 120.86328125 229.046875 C117.42546357 231.39190752 113.88077811 233.34151179 110.1875 235.25 C109.49462891 235.61351562 108.80175781 235.97703125 108.08789062 236.3515625 C106.3944311 237.23916887 104.69755876 238.12025885 103 239 C108.49192964 242.74087961 114.04131924 246.25178891 119.8359375 249.5078125 C122.19518489 251.13458597 123.52618269 252.54827246 125 255 C125.70126874 260.52249135 125.70126874 260.52249135 125 263 C120.69154206 268.56080797 114.35130431 271.48839422 108.3125 274.875 C107.14916077 275.53566457 105.98632804 276.19722173 104.82397461 276.85961914 C102.41265045 278.23273858 99.99921322 279.6020225 97.58398438 280.96826172 C92.0601928 284.09571895 86.56101697 287.26587703 81.0625 290.4375 C79.99281982 291.05359131 78.92313965 291.66968262 77.82104492 292.30444336 C70.05258963 296.7883239 62.33220589 301.34930487 54.625 305.9375 C45.09187039 311.6112351 35.51042316 317.18976155 25.875 322.6875 C25.2892218 323.02184052 24.7034436 323.35618103 24.09991455 323.70065308 C21.37145489 325.25684454 18.64006169 326.80708463 15.90136719 328.34521484 C14.07600807 329.38630237 12.2663222 330.45588161 10.48144531 331.56494141 C6.4704115 334.00737144 3.00626543 335.89870186 -1.87304688 335.54296875 C-6.62217443 334.33061112 -10.63235949 331.57352532 -14.75 329 C-16.88961042 327.7066534 -19.03027924 326.41505649 -21.171875 325.125 C-22.84540039 324.10792969 -22.84540039 324.10792969 -24.55273438 323.0703125 C-29.72084886 319.94844536 -34.97739432 316.98130928 -40.22967529 314.00411987 C-43.19530617 312.32202794 -46.15652547 310.6322249 -49.1171875 308.94140625 C-49.69792023 308.60975967 -50.27865295 308.2781131 -50.87698364 307.93641663 C-57.62594033 304.0772393 -64.33719711 300.15404035 -71.04711914 296.22753906 C-77.3745478 292.52640144 -83.71532843 288.84946057 -90.06762695 285.19116211 C-93.35955659 283.29489807 -96.64860185 281.39370304 -99.9375 279.4921875 C-103.71720893 277.30875187 -107.50727881 275.14643948 -111.3125 273.0078125 C-112.85419324 272.13025502 -114.39586192 271.25265438 -115.9375 270.375 C-116.96605103 269.80894043 -116.96605103 269.80894043 -118.01538086 269.23144531 C-121.87241906 267.01772795 -124.2117608 265.11557992 -126 261 C-126.0625 257.5 -126.0625 257.5 -125 254 C-119.80542877 248.89273248 -113.42886728 245.62185162 -107.125 242.0625 C-105.96184206 241.39978576 -104.79908835 240.7363616 -103.63671875 240.07226562 C-101.84779833 239.05022292 -100.05868858 238.02853637 -98.26837158 237.00894165 C-92.48708416 233.71555259 -86.74150631 230.36220383 -81 227 C-72.74820133 222.17483603 -64.47411685 217.39008477 -56.1875 212.625 C-44.7878038 206.06565782 -33.46667419 199.38086418 -22.1640625 192.65625 C-20.64087402 191.75519531 -20.64087402 191.75519531 -19.08691406 190.8359375 C-16.94568569 189.56244514 -14.8127339 188.27497337 -12.68652344 186.9765625 C-11.62208008 186.33460938 -10.55763672 185.69265625 -9.4609375 185.03125 C-8.50751465 184.44923828 -7.5540918 183.86722656 -6.57177734 183.26757812 C-4 182 -4 182 0 182 C0 121.94 0 61.88 0 0 Z " fill="#9E9E9E" transform="translate(400,520)"/>
<path d="M0 0 C0 60.06 0 120.12 0 182 C-2.31 182.99 -4.62 183.98 -7 185 C-9.00628628 186.06707577 -10.99479754 187.16819428 -12.96484375 188.30078125 C-14.08213867 188.94096191 -15.19943359 189.58114258 -16.35058594 190.24072266 C-17.54630732 190.93117075 -18.74194323 191.6217669 -19.9375 192.3125 C-21.18899004 193.03197762 -22.44061977 193.7512123 -23.69238281 194.47021484 C-34.50146868 200.68571187 -45.27377409 206.96449287 -56.03369141 213.26464844 C-59.09753067 215.05705745 -62.16363269 216.84553629 -65.23046875 218.6328125 C-66.26026855 219.23335449 -67.29006836 219.83389648 -68.35107422 220.45263672 C-70.38382971 221.63640083 -72.41797719 222.81777836 -74.45361328 223.99658203 C-79.03777924 226.65666173 -83.58947675 229.34686858 -88.07421875 232.171875 C-88.84902588 232.65237305 -89.62383301 233.13287109 -90.42211914 233.62792969 C-91.84228215 234.51248206 -93.2526159 235.41311426 -94.65014648 236.33300781 C-97.69974305 238.21708065 -99.39198597 239.10425371 -102.984375 238.48828125 C-103.97953125 237.99714844 -104.9746875 237.50601563 -106 237 C-106.5966748 236.71946777 -107.19334961 236.43893555 -107.80810547 236.14990234 C-109.77371789 235.20786921 -111.69828709 234.20650852 -113.625 233.1875 C-114.27984375 232.85685547 -114.9346875 232.52621094 -115.609375 232.18554688 C-120.71676853 229.49227559 -124.11153948 226.66538155 -126 221 C-126.09160664 218.95790348 -126.12193972 216.91287812 -126.12025452 214.86872864 C-126.12162918 213.58565323 -126.12300385 212.30257782 -126.12442017 210.98062134 C-126.12088101 209.55584694 -126.1172462 208.13107277 -126.11352539 206.70629883 C-126.11324337 205.20833844 -126.11340155 203.71037791 -126.1139679 202.2124176 C-126.11425527 198.14246505 -126.10836815 194.07254186 -126.10139394 190.00259614 C-126.09515051 185.75048613 -126.09455582 181.49837548 -126.09336853 177.2462616 C-126.09025814 169.19276404 -126.08204868 161.13928002 -126.07201904 153.08578843 C-126.06084885 143.91781776 -126.05534516 134.74984645 -126.05032361 125.58187068 C-126.03986583 106.72123943 -126.02227203 87.8606208 -126 69 C-125.33253754 68.63990341 -124.66507507 68.27980682 -123.97738647 67.90879822 C-120.88793126 66.24116064 -117.79943184 64.57176017 -114.7109375 62.90234375 C-113.13687134 62.05319397 -113.13687134 62.05319397 -111.53100586 61.18688965 C-104.51531486 57.39268941 -97.55232326 53.51561359 -90.625 49.5625 C-81.38933986 44.30986818 -72.06495328 39.24402393 -62.69628906 34.23291016 C-54.59062008 29.88585025 -46.57351648 25.39989993 -38.58251953 20.84619141 C-30.38580596 16.18705197 -22.1078754 11.68601784 -13.80224609 7.22436523 C-12.85430176 6.71462158 -11.90635742 6.20487793 -10.9296875 5.6796875 C-10.09679199 5.23351074 -9.26389648 4.78733398 -8.40576172 4.32763672 C-6.66672844 3.36793883 -4.95209207 2.36357717 -3.25439453 1.33251953 C-1 0 -1 0 0 0 Z " fill="#C6C6C6" transform="translate(400,520)"/>
<path d="M0 0 C4.15342322 1.93607862 8.02789505 4.24040146 11.9375 6.625 C13.66697896 7.65166281 15.39647274 8.67830165 17.12686157 9.70343018 C18.91280343 10.76402405 20.6946632 11.83123092 22.47607422 12.89941406 C27.94353647 16.16941569 33.47513275 19.32834807 39 22.5 C41.15523007 23.74300048 43.31017692 24.98649217 45.46484375 26.23046875 C49.91422807 28.79754997 54.36490528 31.36237232 58.81640625 33.92578125 C64.23596134 37.04709908 69.65249775 40.17358628 75.06640625 43.3046875 C76.96647372 44.40272916 78.86745823 45.49918612 80.76953125 46.59375 C83.20346167 47.9949933 85.63353765 49.40266801 88.0625 50.8125 C88.76511963 51.21509033 89.46773926 51.61768066 90.19165039 52.0324707 C94.88557114 54.77114228 94.88557114 54.77114228 96 57 C95.33806641 57.35602295 94.67613281 57.7120459 93.99414062 58.07885742 C75.24500571 68.16474357 56.49903346 78.25676191 37.81738281 88.46728516 C35.1326489 89.93332321 32.44525205 91.39439777 29.7578125 92.85546875 C26.10857853 94.8415903 22.47107923 96.84734406 18.84176636 98.86964417 C17.06344808 99.85841026 15.28208832 100.84144414 13.49951172 101.82250977 C11.21177157 103.08257036 8.92927651 104.35221363 6.65283203 105.63256836 C5.61239746 106.20241455 4.57196289 106.77226074 3.5 107.359375 C2.5821875 107.86952148 1.664375 108.37966797 0.71875 108.90527344 C-3.57221189 110.63306377 -6.5923533 110.57404881 -10.87060547 108.8293457 C-11.85947754 108.28366943 -12.84834961 107.73799316 -13.8671875 107.17578125 C-14.98754395 106.56597412 -16.10790039 105.95616699 -17.26220703 105.32788086 C-18.46656982 104.65626378 -19.67083161 103.98446556 -20.875 103.3125 C-22.13197998 102.62320756 -23.38964004 101.93515398 -24.64794922 101.24829102 C-27.21083124 99.84719572 -29.77000136 98.43966889 -32.32617188 97.02636719 C-36.60986358 94.6597098 -40.91397809 92.3314429 -45.22021484 90.00610352 C-48.14635282 88.42596933 -51.06947922 86.84037383 -53.9921875 85.25390625 C-60.40269029 81.77793748 -66.82660124 78.32705943 -73.25 74.875 C-84.20488026 68.98535873 -95.1159422 63.01939991 -106 57 C-103.33859868 54.16041369 -100.82741435 52.13148439 -97.421875 50.2578125 C-96.07041382 49.50576538 -96.07041382 49.50576538 -94.69165039 48.73852539 C-93.72090576 48.20606201 -92.75016113 47.67359863 -91.75 47.125 C-89.65934229 45.96109628 -87.569524 44.79568372 -85.48046875 43.62890625 C-84.40587402 43.02965332 -83.3312793 42.43040039 -82.22412109 41.81298828 C-77.13721266 38.95251713 -72.09825266 36.01184632 -67.0625 33.0625 C-66.07169434 32.48266357 -65.08088867 31.90282715 -64.06005859 31.30541992 C-62.04810355 30.1275194 -60.03638486 28.94921509 -58.02490234 27.77050781 C-54.99420185 25.99660628 -51.96056038 24.22785118 -48.92578125 22.4609375 C-47.92482422 21.87763672 -46.92386719 21.29433594 -45.89257812 20.69335938 C-43.89414027 19.5305143 -41.89415748 18.37031994 -39.89257812 17.21289062 C-34.84720313 14.28663956 -29.85449608 11.30217341 -24.91796875 8.1953125 C-23.93393066 7.5856665 -22.94989258 6.97602051 -21.93603516 6.34790039 C-20.07580476 5.19209199 -18.22684853 4.01785205 -16.39208984 2.82202148 C-10.64207571 -0.72166886 -6.5450095 -2.26241459 0 0 Z " fill="#636363" transform="translate(405,703)"/>
<path d="M0 0 C2.08572373 1.26900878 4.12139966 2.59197273 6.14892578 3.95214844 C10.89477531 6.99571368 15.95363971 9.49750091 20.9375 12.125 C23.19172754 13.34074474 25.44431166 14.55954123 27.6953125 15.78125 C33.30482191 18.82099551 38.92170931 21.84671832 44.54174805 24.86694336 C53.91699099 29.90621517 63.28058616 34.96627157 72.625 40.0625 C73.49866211 40.53896973 74.37232422 41.01543945 75.27246094 41.50634766 C76.10165039 41.95929199 76.93083984 42.41223633 77.78515625 42.87890625 C78.58195801 43.31090332 79.37875977 43.74290039 80.19970703 44.18798828 C81.80544916 45.0796248 83.39483823 46.00122743 84.96826172 46.94873047 C90.85615767 50.53985388 90.85615767 50.53985388 97.5625 50.5 C101.18959959 48.97461356 104.61239121 47.13705372 108.0625 45.25 C109.07642822 44.70786865 110.09035645 44.1657373 111.13500977 43.60717773 C114.28490975 41.91810093 117.42456929 40.21119381 120.5625 38.5 C122.41527216 37.4959232 124.26813294 36.49200988 126.12109375 35.48828125 C129.74028116 33.52264287 133.35417746 31.54765024 136.96484375 29.56640625 C142.81861688 26.35514047 148.68963113 23.17617232 154.5625 20 C162.62952965 15.63331606 170.69352176 11.26112543 178.75 6.875 C179.66458984 6.37806641 180.57917969 5.88113281 181.52148438 5.36914062 C182.80055664 4.67208008 182.80055664 4.67208008 184.10546875 3.9609375 C184.89356934 3.53264648 185.68166992 3.10435547 186.49365234 2.66308594 C188.1553976 1.72886899 189.76894224 0.70916618 191.36328125 -0.3359375 C194.0469223 -1.75640825 195.55057737 -1.74524419 198.5625 -1.5 C200.73486328 -0.55371094 200.73486328 -0.55371094 202.8828125 0.765625 C203.66527344 1.24386719 204.44773437 1.72210937 205.25390625 2.21484375 C206.05699219 2.72144531 206.86007812 3.22804688 207.6875 3.75 C208.90373047 4.48669922 208.90373047 4.48669922 210.14453125 5.23828125 C217.14104162 9.57496123 217.14104162 9.57496123 219.5625 13.5 C220.26376874 19.02249135 220.26376874 19.02249135 219.5625 21.5 C215.25404206 27.06080797 208.91380431 29.98839422 202.875 33.375 C201.71166077 34.03566457 200.54882804 34.69722173 199.38647461 35.35961914 C196.97515045 36.73273858 194.56171322 38.1020225 192.14648438 39.46826172 C186.6226928 42.59571895 181.12351697 45.76587703 175.625 48.9375 C174.55531982 49.55359131 173.48563965 50.16968262 172.38354492 50.80444336 C164.61508963 55.2883239 156.89470589 59.84930487 149.1875 64.4375 C139.65437039 70.1112351 130.07292316 75.68976155 120.4375 81.1875 C119.8517218 81.52184052 119.2659436 81.85618103 118.66241455 82.20065308 C115.93395489 83.75684454 113.20256169 85.30708463 110.46386719 86.84521484 C108.63850807 87.88630237 106.8288222 88.95588161 105.04394531 90.06494141 C101.0329115 92.50737144 97.56876543 94.39870186 92.68945312 94.04296875 C87.94032557 92.83061112 83.93014051 90.07352532 79.8125 87.5 C77.67288958 86.2066534 75.53222076 84.91505649 73.390625 83.625 C72.27494141 82.94695312 71.15925781 82.26890625 70.00976562 81.5703125 C64.84165114 78.44844536 59.58510568 75.48130928 54.33282471 72.50411987 C51.36719383 70.82202794 48.40597453 69.1322249 45.4453125 67.44140625 C44.86457977 67.10975967 44.28384705 66.7781131 43.68551636 66.43641663 C36.93655967 62.5772393 30.22530289 58.65404035 23.51538086 54.72753906 C17.1879522 51.02640144 10.84717157 47.34946057 4.49487305 43.69116211 C1.20294341 41.79489807 -2.08610185 39.89370304 -5.375 37.9921875 C-9.15470893 35.80875187 -12.94477881 33.64643948 -16.75 31.5078125 C-18.29169324 30.63025502 -19.83336192 29.75265438 -21.375 28.875 C-22.06070068 28.49762695 -22.74640137 28.12025391 -23.45288086 27.73144531 C-27.30991906 25.51772795 -29.6492608 23.61557992 -31.4375 19.5 C-31.5 16 -31.5 16 -30.4375 12.5 C-28.47627527 10.70543473 -26.54462204 9.10446613 -24.4375 7.5 C-23.83462158 7.01644043 -23.23174316 6.53288086 -22.6105957 6.03466797 C-8.63139858 -4.85289028 -8.63139858 -4.85289028 0 0 Z " fill="#7C7C7C" transform="translate(305.4375,761.5)"/>
<path d="M0 0 C4.3711835 1.20508383 8.12324739 2.39957584 12.01953125 4.73046875 C13.40857666 5.55212524 13.40857666 5.55212524 14.82568359 6.39038086 C15.81133301 6.98343018 16.79698242 7.57647949 17.8125 8.1875 C19.96701695 9.4642692 22.12198015 10.74028558 24.27734375 12.015625 C25.94192627 13.0046582 25.94192627 13.0046582 27.64013672 14.01367188 C33.02683373 17.1982502 38.45068499 20.31757344 43.875 23.4375 C46.04822221 24.69002587 48.221399 25.94263056 50.39453125 27.1953125 C53.73077109 29.11718508 57.06721467 31.03870315 60.40380859 32.95996094 C66.96112839 36.73615338 73.51609256 40.51635321 80.06640625 44.3046875 C81.96647372 45.40272916 83.86745823 46.49918612 85.76953125 47.59375 C88.20346167 48.9949933 90.63353765 50.40266801 93.0625 51.8125 C93.76511963 52.21509033 94.46773926 52.61768066 95.19165039 53.0324707 C99.88557114 55.77114228 99.88557114 55.77114228 101 58 C100.33806641 58.35602295 99.67613281 58.7120459 98.99414062 59.07885742 C80.24473201 69.16489081 61.49987534 79.25945185 42.81640625 89.46728516 C39.21069405 91.43695124 35.60329014 93.40349804 31.99511719 95.36865234 C29.84432769 96.54012083 27.69399018 97.71241932 25.54394531 98.88525391 C22.53724251 100.52471684 19.52793648 102.15931948 16.51702881 103.79104614 C14.77690754 104.73539747 13.03906882 105.68395089 11.30126953 106.63256836 C10.24794434 107.20241455 9.19461914 107.77226074 8.109375 108.359375 C6.70123535 109.12459473 6.70123535 109.12459473 5.26464844 109.90527344 C3 111 3 111 1 111 C-0.14403292 105.53401378 -0.13432338 100.2350741 -0.11352539 94.68017578 C-0.11367142 93.65517471 -0.11381744 92.63017365 -0.1139679 91.57411194 C-0.11327316 88.19782367 -0.10550129 84.82159109 -0.09765625 81.4453125 C-0.09579051 79.09976227 -0.09436734 76.75421165 -0.09336853 74.40866089 C-0.08955562 68.24376342 -0.0797358 62.07888961 -0.06866455 55.91400146 C-0.05842407 49.61975423 -0.05386526 43.32550317 -0.04882812 37.03125 C-0.03811243 24.68748962 -0.02105073 12.34374678 0 0 Z " fill="#4F4F4F" transform="translate(400,702)"/>
<path d="M0 0 C2.66205696 2.74832733 3.43125287 4.77049181 3.4375 8.5625 C3.11165671 18.19612782 -1.13574234 26.53078762 -7 34 C-7.57548584 34.4964502 -8.15097168 34.99290039 -8.74389648 35.50439453 C-12.09852597 38.63005792 -13.81209848 40.85108164 -14.56518555 45.45581055 C-14.68815213 49.49342478 -14.61318321 53.46733628 -14.4375 57.5 C-14.40232921 58.90877633 -14.37040034 60.31763753 -14.34179688 61.7265625 C-14.25965078 65.15322833 -14.14480903 68.57550517 -14 72 C-13.34 72.33 -12.68 72.66 -12 73 C-12.14349676 70.3956865 -12.28982077 67.79157706 -12.4375 65.1875 C-12.5008252 64.02903564 -12.5008252 64.02903564 -12.56542969 62.84716797 C-12.86705256 57.56436452 -13.36296552 52.34265517 -14.109375 47.1015625 C-14 45 -14 45 -12.96484375 43.22265625 C-9.94992312 41.34657244 -7.31515279 41.71609671 -3.8125 41.8125 C-1.90404297 41.85310547 -1.90404297 41.85310547 0.04296875 41.89453125 C1.50669922 41.94673828 1.50669922 41.94673828 3 42 C3.6875 43.8125 3.6875 43.8125 4 46 C2.85546875 47.73828125 2.85546875 47.73828125 1 49 C-1.26171875 49.29296875 -1.26171875 49.29296875 -3.6875 49.1875 C-4.89986328 49.14689453 -4.89986328 49.14689453 -6.13671875 49.10546875 C-6.75160156 49.07066406 -7.36648438 49.03585937 -8 49 C-7.835 50.19625 -7.67 51.3925 -7.5 52.625 C-7.04867457 56.81303455 -6.83931903 60.97610789 -6.75 65.1875 C-6.72421875 66.33605469 -6.6984375 67.48460937 -6.671875 68.66796875 C-7.04360255 72.44277352 -8.00996946 74.78712359 -10 78 C-13 80 -13 80 -16 79.9375 C-19 79 -19 79 -20.8125 76.8125 C-23.91032843 69.47553793 -23.21940593 61.31678399 -23.25 53.5 C-23.270625 52.21351563 -23.29125 50.92703125 -23.3125 49.6015625 C-23.34834587 40.69386407 -22.21075826 32.61966087 -20 24 C-19.64965698 22.5924646 -19.64965698 22.5924646 -19.29223633 21.15649414 C-16.67058134 10.99480277 -12.2870675 -1.56380859 0 0 Z " fill="#EEEEEE" transform="translate(469,922)"/>
<path d="M0 0 C0.78375 0.04125 1.5675 0.0825 2.375 0.125 C2.5 6.875 2.5 6.875 1.375 9.125 C1.14641886 11.1624763 0.96475722 13.20540303 0.8125 15.25 C0.72871094 16.34570312 0.64492188 17.44140625 0.55859375 18.5703125 C0.49800781 19.41335938 0.43742187 20.25640625 0.375 21.125 C4.55229378 17.6726162 5.86297903 13.90363271 7.5625 8.9375 C10.28547297 1.21452703 10.28547297 1.21452703 11.375 0.125 C13.37458364 0.08419217 15.37545254 0.08245644 17.375 0.125 C17.28412109 1.01638672 17.28412109 1.01638672 17.19140625 1.92578125 C16.54482122 8.32199929 15.94715654 14.72171614 15.375 21.125 C16.06335938 20.58359375 16.06335938 20.58359375 16.765625 20.03125 C17.37921875 19.5671875 17.9928125 19.103125 18.625 18.625 C19.22828125 18.1609375 19.8315625 17.696875 20.453125 17.21875 C22.375 16.125 22.375 16.125 26.375 16.125 C26.7109375 18.359375 26.7109375 18.359375 26.375 21.125 C24.0390625 23.328125 24.0390625 23.328125 21 25.375 C20.00226563 26.06078125 19.00453125 26.7465625 17.9765625 27.453125 C15.375 29.125 15.375 29.125 13.375 30.125 C12.63780755 32.29619854 12.63780755 32.29619854 12.0625 34.9375 C7.28420092 53.35436127 7.28420092 53.35436127 0.375 58.125 C-3.1875 59.1875 -3.1875 59.1875 -6.625 59.125 C-9.0625 57.75 -9.0625 57.75 -10.625 55.125 C-11.48077404 50.46676604 -11.12503551 47.08803135 -8.9375 42.875 C-5.01621635 38.21185188 -0.74988487 34.31733988 4.01953125 30.5546875 C5.71900979 29.09050427 5.71900979 29.09050427 5.375 26.125 C4.653125 26.805625 3.93125 27.48625 3.1875 28.1875 C0.375 30.125 0.375 30.125 -2.25 30.125 C-5.21956672 28.87465612 -6.01942236 27.91651567 -7.625 25.125 C-8.56342242 17.13920924 -8.31456825 9.36223003 -4.625 2.125 C-2.625 0.125 -2.625 0.125 0 0 Z " fill="#EEEEEE" transform="translate(414.625,951.875)"/>
<path d="M0 0 C2.08250471 2.0968999 2.91474959 3.48431859 3.3984375 6.41015625 C3.27285475 20.62193704 -2.26772708 32.92706471 -9.76953125 44.80078125 C-11.27666846 46.99415302 -11.27666846 46.99415302 -10.6875 49.8125 C-10.460625 50.534375 -10.23375 51.25625 -10 52 C-5.73538008 51.79692286 -3.56751049 50.91504038 -0.625 47.9375 C0.674375 46.4834375 0.674375 46.4834375 2 45 C3.485 45.495 3.485 45.495 5 46 C5.4375 48.0625 5.4375 48.0625 5 51 C2.12233748 54.6048138 -1.17227362 57.44818241 -5 60 C-9.4508123 60.43072377 -11.86532652 60.60515919 -15.8125 58.5 C-20.92229396 52.66023548 -21.43869394 46.6799077 -21.22265625 39.203125 C-20.35022829 26.65240702 -18.35362344 11.97721169 -10 2 C-6.29584707 -0.46943529 -4.37855495 -0.46913089 0 0 Z " fill="#EEEEEE" transform="translate(398,922)"/>
<path d="M0 0 C0.78375 0.04125 1.5675 0.0825 2.375 0.125 C2.31441406 0.71925781 2.25382812 1.31351563 2.19140625 1.92578125 C1.54482122 8.32199929 0.94715654 14.72171614 0.375 21.125 C4.55229378 17.6726162 5.86297903 13.90363271 7.5625 8.9375 C10.28547297 1.21452703 10.28547297 1.21452703 11.375 0.125 C13.37458364 0.08419217 15.37545254 0.08245644 17.375 0.125 C13.99060839 43.54114811 13.99060839 43.54114811 3.375 56.125 C0.73681948 58.23554442 -0.8846935 58.99860621 -4.1875 59.5625 C-6.625 59.125 -6.625 59.125 -8.9375 57.6875 C-11.06103434 54.46287378 -11.31809525 52.30734827 -11.13671875 48.4921875 C-9.45986768 40.73515123 -1.00063055 33.37542037 5.375 29.125 C5.375 28.135 5.375 27.145 5.375 26.125 C4.653125 26.805625 3.93125 27.48625 3.1875 28.1875 C0.375 30.125 0.375 30.125 -2.25 30.1875 C-5.44808872 28.7567761 -6.10238748 27.25241151 -7.625 24.125 C-8.61634001 16.62191676 -8.03601307 8.96267298 -4.625 2.125 C-2.625 0.125 -2.625 0.125 0 0 Z " fill="#EEEEEE" transform="translate(484.625,951.875)"/>
<path d="M0 0 C3 0.125 3 0.125 4 1.125 C4.15620555 2.53827947 4.25056173 3.9585459 4.31640625 5.37890625 C4.37924805 6.65991211 4.37924805 6.65991211 4.44335938 7.96679688 C4.48267578 8.86462891 4.52199219 9.76246094 4.5625 10.6875 C4.60568359 11.58919922 4.64886719 12.49089844 4.69335938 13.41992188 C4.79978142 15.65478485 4.90179988 17.88976308 5 20.125 C5.23710693 19.55467041 5.47421387 18.98434082 5.71850586 18.39672852 C6.78895634 15.82591618 7.86317581 13.2566958 8.9375 10.6875 C9.31068359 9.78966797 9.68386719 8.89183594 10.06835938 7.96679688 C10.42607422 7.11279297 10.78378906 6.25878906 11.15234375 5.37890625 C11.48226318 4.58814697 11.81218262 3.7973877 12.15209961 2.98266602 C13 1.125 13 1.125 14 0.125 C16.5 0 16.5 0 19 0.125 C20.58403524 1.70903524 20.21974935 3.4021638 20.31640625 5.59765625 C20.35830078 6.49677734 20.40019531 7.39589844 20.44335938 8.32226562 C20.48267578 9.26779297 20.52199219 10.21332031 20.5625 11.1875 C20.60568359 12.13689453 20.64886719 13.08628906 20.69335938 14.06445312 C20.79979276 16.41781353 20.90181008 18.77128354 21 21.125 C24.52609605 15.45090415 24.52609605 15.45090415 25.5 8.9375 C25.72433054 5.58783712 25.84222227 4.3616666 27.75 1.5 C30.4444465 -0.1466062 31.89538762 -0.36520195 35 0.125 C35.66 0.785 36.32 1.445 37 2.125 C36.96692593 5.17883879 36.43304158 8.09370896 36 11.125 C40.455 10.63 40.455 10.63 45 10.125 C45.495 12.6 45.495 12.6 46 15.125 C42.60341974 17.72904487 40.21604078 18.23732279 36.0625 18.3125 C32.89552955 18.52457391 31.48209326 18.68006809 29.125 20.85546875 C27.55072755 22.95909808 27.55072755 22.95909808 26.25390625 25.1171875 C25.00149605 27.12260446 23.80285898 28.59986603 22 30.125 C19.19554171 30.54566874 17.69549858 30.58866572 15.3125 29 C13.58345938 26.52994197 12.83235975 24.00624528 12 21.125 C11.72027344 21.69089844 11.44054687 22.25679687 11.15234375 22.83984375 C9.90095422 25.12936351 8.69662577 27.13860399 7 29.125 C3.1875 30.125 3.1875 30.125 0 30.125 C-5.87477045 22.46225593 -4.43153792 10.25075773 -4 1.125 C-3 0.125 -3 0.125 0 0 Z " fill="#EEEEEE" transform="translate(327,951.875)"/>
<path d="M0 0 C0.94875 0.04125 1.8975 0.0825 2.875 0.125 C3.01294954 7.19108191 2.62305717 14.09860585 1.875 21.125 C2.56335938 20.58359375 2.56335938 20.58359375 3.265625 20.03125 C3.87921875 19.5671875 4.4928125 19.103125 5.125 18.625 C5.72828125 18.1609375 6.3315625 17.696875 6.953125 17.21875 C8.875 16.125 8.875 16.125 12.875 16.125 C13.265625 18.37890625 13.265625 18.37890625 12.875 21.125 C10.79741475 22.63515228 8.85518634 23.831242 6.625 25.0625 C1.36304246 28.30661426 -0.9894522 30.71400084 -2.5625 36.9375 C-2.81 38.12601563 -3.0575 39.31453125 -3.3125 40.5390625 C-4.74540866 46.86314977 -7.25689036 53.98869013 -12.58984375 57.9609375 C-16.16526669 59.60265712 -18.38218984 59.16466949 -22.125 58.125 C-24.53943016 56.02210922 -25.02082426 54.61115348 -25.6875 51.5 C-24.18876905 42.50761433 -17.93384832 36.57485809 -11.19921875 30.9375 C-7.29227118 27.52351945 -7.62286946 23.32673371 -7.125 18.4375 C-6.80106086 15.3322396 -6.46820989 12.22818945 -6.125 9.125 C-5.9084375 7.16626953 -5.9084375 7.16626953 -5.6875 5.16796875 C-4.91833139 1.00698025 -4.27395864 0.17095835 0 0 Z " fill="#EBEBEB" transform="translate(270.125,951.875)"/>
<path d="M0 0 C3.41234817 2.41707996 4.77218054 3.81027614 5.5625 7.9375 C4.82035698 11.97805647 3.78139279 13.94725182 1 17 C-1.9252459 18.34430405 -4.87615669 19.23906381 -8 20 C-7.67 20.66 -7.34 21.32 -7 22 C-0.5293301 22.4540821 2.62811682 21.65288056 8 18 C8.66 17.34 9.32 16.68 10 16 C10.99 16 11.98 16 13 16 C13.4375 18.625 13.4375 18.625 13 22 C9.23321293 26.53291326 4.56317869 29.61608849 -1.3203125 30.25 C-5.6701765 30.4577547 -8.45078808 30.25962746 -12.4375 28.375 C-16.50615774 24.60404892 -17.81620324 21.62791418 -18.4375 16.125 C-18.2327628 11.47835583 -16.68598505 7.77038895 -14 4 C-9.37456998 -0.20493638 -6.00281149 -0.8575445 0 0 Z " fill="#ECECEC" transform="translate(305,952)"/>
<path d="M0 0 C0.99 0.33 1.98 0.66 3 1 C3.79129269 12.67156712 -0.44169027 22.90847864 -6 33 C-6.33 33 -6.66 33 -7 33 C-6.61403509 6.61403509 -6.61403509 6.61403509 0 0 Z " fill="#141414" transform="translate(392,928)"/>
<path d="M0 0 C0.99 0 1.98 0 3 0 C3.66651516 10.330985 0.44008491 17.99340795 -6 26 C-6.33 26 -6.66 26 -7 26 C-6.59289869 16.79951037 -4.31533251 8.16623461 0 0 Z " fill="#141414" transform="translate(463,928)"/>
<path d="M0 0 C3.5 0.25 3.5 0.25 5.5 2.25 C5.25 5.3125 5.25 5.3125 4.5 8.25 C1.48675805 9.75662097 -1.18286377 9.42770373 -4.5 9.25 C-5.16 8.59 -5.82 7.93 -6.5 7.25 C-6.00978594 2.34785936 -5.20374972 0.37169641 0 0 Z " fill="#EBEBEB" transform="translate(270.5,937.75)"/>
<path d="M0 0 C1 2 1 2 0.29296875 4.53125 C-0.25423828 6.00078125 -0.25423828 6.00078125 -0.8125 7.5 C-1.34810547 8.96953125 -1.34810547 8.96953125 -1.89453125 10.46875 C-3 13 -3 13 -5 15 C-5.99 15 -6.98 15 -8 15 C-7.85562749 8.07011948 -4.77744657 4.80239407 0 0 Z " fill="#0C0C0C" transform="translate(488,989)"/>
<path d="M0 0 C1 2 1 2 0.29296875 4.53125 C-0.25423828 6.00078125 -0.25423828 6.00078125 -0.8125 7.5 C-1.34810547 8.96953125 -1.34810547 8.96953125 -1.89453125 10.46875 C-3 13 -3 13 -5 15 C-5.99 15 -6.98 15 -8 15 C-7.85562749 8.07011948 -4.77744657 4.80239407 0 0 Z " fill="#0C0C0C" transform="translate(418,989)"/>
<path d="M0 0 C0.33 0 0.66 0 1 0 C2.17700048 4.62459244 2.11408412 9.07866462 2.0625 13.8125 C2.05798828 14.60076172 2.05347656 15.38902344 2.04882812 16.20117188 C2.03711312 18.13414761 2.01917998 20.06708393 2 22 C1.01 21.67 0.02 21.34 -1 21 C-1.02895976 17.87501937 -1.04678483 14.7500731 -1.0625 11.625 C-1.07087891 10.73554687 -1.07925781 9.84609375 -1.08789062 8.9296875 C-1.09111328 8.07890625 -1.09433594 7.228125 -1.09765625 6.3515625 C-1.10289307 5.56604004 -1.10812988 4.78051758 -1.11352539 3.97119141 C-1 2 -1 2 0 0 Z " fill="#0D0D0D" transform="translate(455,973)"/>
<path d="M0 0 C1.20911995 3.62735984 0.67930825 4.6393849 -0.6875 8.125 C-1.02136719 9.01445313 -1.35523438 9.90390625 -1.69921875 10.8203125 C-3 13 -3 13 -5.14453125 13.8046875 C-5.75683594 13.86914062 -6.36914062 13.93359375 -7 14 C-7.62972989 8.83621488 -6.28572364 6.38723044 -3.2890625 2.41796875 C-2 1 -2 1 0 0 Z " fill="#0B0B0B" transform="translate(259,990)"/>
<path d="M0 0 C0.598125 0.226875 1.19625 0.45375 1.8125 0.6875 C1.4766593 3.79402645 1.22200721 5.29164303 -1.0625 7.5 C-3.1875 8.6875 -3.1875 8.6875 -6.1875 8.6875 C-5.58623418 3.27610759 -5.58623418 3.27610759 -3.875 0.75 C-2.1875 -0.3125 -2.1875 -0.3125 0 0 Z " fill="#0D0D0D" transform="translate(301.1875,958.3125)"/>
<path d="M0 0 C0.3125 2.3125 0.3125 2.3125 0 5 C-2.5 6.8125 -2.5 6.8125 -5 8 C-5.33 7.01 -5.66 6.02 -6 5 C-1.125 0 -1.125 0 0 0 Z " fill="#212121" transform="translate(421,976)"/>
</svg>
